<?xml version="1.0" encoding="UTF-8"?>
<svg version="1.1" xmlns="http://www.w3.org/2000/svg" width="500" height="500">
<path d="M0 0 C2.3125 0.9375 2.3125 0.9375 4.3125 3.9375 C4.72314453 6.45507813 4.72314453 6.45507813 4.9453125 9.46875 C5.02942383 10.58000244 5.11353516 11.69125488 5.20019531 12.83618164 C5.27850586 14.0246167 5.35681641 15.21305176 5.4375 16.4375 C5.5209668 17.65622803 5.60443359 18.87495605 5.69042969 20.13061523 C7.72600147 51.68820924 5.71424577 81.61064733 -13.6875 107.9375 C-14.45126953 109.04351562 -14.45126953 109.04351562 -15.23046875 110.171875 C-15.71128906 110.75453125 -16.19210937 111.3371875 -16.6875 111.9375 C-17.3475 111.9375 -18.0075 111.9375 -18.6875 111.9375 C-19.0278125 112.7728125 -19.0278125 112.7728125 -19.375 113.625 C-21.06300036 116.59909588 -23.15426517 118.65758865 -25.6875 120.9375 C-26.3475 120.9375 -27.0075 120.9375 -27.6875 120.9375 C-27.6875 121.5975 -27.6875 122.2575 -27.6875 122.9375 C-33.09926471 126.9375 -33.09926471 126.9375 -35.6875 126.9375 C-35.6875 127.5975 -35.6875 128.2575 -35.6875 128.9375 C-49.29091683 136.34856244 -62.85141923 142.66353276 -77.49853516 147.76074219 C-95.62127811 154.08118822 -110.7702419 161.53286975 -119.91015625 179.3203125 C-120.16667969 179.85398437 -120.42320312 180.38765625 -120.6875 180.9375 C-121.3475 180.9375 -122.0075 180.9375 -122.6875 180.9375 C-122.6875 181.5975 -122.6875 182.2575 -122.6875 182.9375 C-125.421875 183.23046875 -125.421875 183.23046875 -128.6875 182.9375 C-130.953125 180.92578125 -130.953125 180.92578125 -132.9375 178.25 C-133.60265625 177.37988281 -134.2678125 176.50976562 -134.953125 175.61328125 C-136.58160328 173.1008767 -137.69338041 170.75248149 -138.6875 167.9375 C-139.3475 167.9375 -140.0075 167.9375 -140.6875 167.9375 C-141.9765625 166.4765625 -141.9765625 166.4765625 -143.3125 164.5625 C-143.75851563 163.93601563 -144.20453125 163.30953125 -144.6640625 162.6640625 C-145.6875 160.9375 -145.6875 160.9375 -145.6875 158.9375 C-146.3475 158.9375 -147.0075 158.9375 -147.6875 158.9375 C-149.37890625 157.29296875 -149.37890625 157.29296875 -151.25 155.125 C-151.87003906 154.41730469 -152.49007812 153.70960938 -153.12890625 152.98046875 C-154.6875 150.9375 -154.6875 150.9375 -155.6875 147.9375 C-156.3475 147.9375 -157.0075 147.9375 -157.6875 147.9375 C-159.4140625 146.2578125 -159.4140625 146.2578125 -161.3125 144.0625 C-161.94414062 143.34320313 -162.57578125 142.62390625 -163.2265625 141.8828125 C-164.6875 139.9375 -164.6875 139.9375 -164.6875 137.9375 C-165.3475 137.9375 -166.0075 137.9375 -166.6875 137.9375 C-166.6875 137.2775 -166.6875 136.6175 -166.6875 135.9375 C-167.3475 135.9375 -168.0075 135.9375 -168.6875 135.9375 C-168.6875 135.2775 -168.6875 134.6175 -168.6875 133.9375 C-169.326875 133.669375 -169.96625 133.40125 -170.625 133.125 C-172.6875 131.9375 -172.6875 131.9375 -173.6875 128.9375 C-174.3475 128.9375 -175.0075 128.9375 -175.6875 128.9375 C-177.09765625 127.50390625 -177.09765625 127.50390625 -178.75 125.5 C-181.43924994 122.32992783 -184.22263377 119.35168475 -187.1875 116.4375 C-190.67296826 112.99945307 -193.93368155 109.44721296 -197.11328125 105.7265625 C-198.55491181 104.08818335 -200.05004459 102.57128081 -201.625 101.0625 C-203.6875 98.9375 -203.6875 98.9375 -203.6875 96.9375 C-204.3475 96.9375 -205.0075 96.9375 -205.6875 96.9375 C-208.31542041 92.37543017 -208.36274936 88.08729332 -207.6875 82.9375 C-205.23197855 78.28047656 -202.73746079 74.62082026 -197.6875 72.9375 C-193.26841902 72.42404488 -189.73794792 72.43416037 -185.6875 74.375 C-181.45921371 77.98666121 -177.33843346 81.73486992 -173.6875 85.9375 C-173.6875 86.5975 -173.6875 87.2575 -173.6875 87.9375 C-173.0275 87.9375 -172.3675 87.9375 -171.6875 87.9375 C-171.6875 88.5975 -171.6875 89.2575 -171.6875 89.9375 C-171.0275 89.9375 -170.3675 89.9375 -169.6875 89.9375 C-169.6875 90.5975 -169.6875 91.2575 -169.6875 91.9375 C-169.0275 91.9375 -168.3675 91.9375 -167.6875 91.9375 C-167.6875 92.5975 -167.6875 93.2575 -167.6875 93.9375 C-167.0275 93.9375 -166.3675 93.9375 -165.6875 93.9375 C-165.6875 94.5975 -165.6875 95.2575 -165.6875 95.9375 C-165.0275 95.9375 -164.3675 95.9375 -163.6875 95.9375 C-163.6875 96.5975 -163.6875 97.2575 -163.6875 97.9375 C-163.0275 97.9375 -162.3675 97.9375 -161.6875 97.9375 C-161.6875 98.5975 -161.6875 99.2575 -161.6875 99.9375 C-161.0275 99.9375 -160.3675 99.9375 -159.6875 99.9375 C-159.6875 100.5975 -159.6875 101.2575 -159.6875 101.9375 C-159.0275 101.9375 -158.3675 101.9375 -157.6875 101.9375 C-157.6875 102.5975 -157.6875 103.2575 -157.6875 103.9375 C-157.0275 103.9375 -156.3675 103.9375 -155.6875 103.9375 C-153.0625 106.3125 -153.0625 106.3125 -150.6875 108.9375 C-150.6875 109.5975 -150.6875 110.2575 -150.6875 110.9375 C-150.0275 110.9375 -149.3675 110.9375 -148.6875 110.9375 C-147.06640625 112.58203125 -147.06640625 112.58203125 -145.25 114.75 C-143.14128035 117.25040408 -141.0149297 119.64031258 -138.6875 121.9375 C-138.54501831 120.95076294 -138.54501831 120.95076294 -138.3996582 119.9440918 C-134.72532167 94.86919814 -130.3564249 67.55331268 -112.6875 47.9375 C-112.0275 47.9375 -111.3675 47.9375 -110.6875 47.9375 C-110.31625 47.009375 -110.31625 47.009375 -109.9375 46.0625 C-108.48121361 43.58681313 -107.30937494 42.98624998 -104.6875 41.9375 C-104.6875 41.2775 -104.6875 40.6175 -104.6875 39.9375 C-102.51351374 38.24459193 -100.35713894 36.70234754 -98.0625 35.1875 C-97.38388916 34.73938965 -96.70527832 34.2912793 -96.00610352 33.82958984 C-81.50870948 24.50563049 -65.55947949 20.60058636 -48.8125 17.5 C-25.47761742 13.20487022 -25.47761742 13.20487022 -5.0234375 1.75 C-2.6875 -0.0625 -2.6875 -0.0625 0 0 Z " fill="#2F5D1F" transform="translate(354.6875,88.0625)"/>
<path d="M0 0 C2.3125 0.9375 2.3125 0.9375 4.3125 3.9375 C4.72314453 6.45507812 4.72314453 6.45507812 4.9453125 9.46875 C5.02942383 10.58000244 5.11353516 11.69125488 5.20019531 12.83618164 C5.27850586 14.0246167 5.35681641 15.21305176 5.4375 16.4375 C5.5209668 17.65622803 5.60443359 18.87495605 5.69042969 20.13061523 C7.72600147 51.68820924 5.71424577 81.61064733 -13.6875 107.9375 C-14.45126953 109.04351562 -14.45126953 109.04351562 -15.23046875 110.171875 C-15.95169922 111.04585937 -15.95169922 111.04585937 -16.6875 111.9375 C-17.3475 111.9375 -18.0075 111.9375 -18.6875 111.9375 C-18.914375 112.494375 -19.14125 113.05125 -19.375 113.625 C-21.06300036 116.59909588 -23.15426517 118.65758865 -25.6875 120.9375 C-26.3475 120.9375 -27.0075 120.9375 -27.6875 120.9375 C-27.6875 121.5975 -27.6875 122.2575 -27.6875 122.9375 C-33.09926471 126.9375 -33.09926471 126.9375 -35.6875 126.9375 C-35.6875 127.5975 -35.6875 128.2575 -35.6875 128.9375 C-49.29091683 136.34856244 -62.85141923 142.66353276 -77.49853516 147.76074219 C-95.62127811 154.08118822 -110.7702419 161.53286975 -119.91015625 179.3203125 C-120.16667969 179.85398437 -120.42320312 180.38765625 -120.6875 180.9375 C-121.3475 180.9375 -122.0075 180.9375 -122.6875 180.9375 C-122.6875 181.5975 -122.6875 182.2575 -122.6875 182.9375 C-125.421875 183.23046875 -125.421875 183.23046875 -128.6875 182.9375 C-130.953125 180.92578125 -130.953125 180.92578125 -132.9375 178.25 C-133.60265625 177.37988281 -134.2678125 176.50976562 -134.953125 175.61328125 C-136.58160328 173.1008767 -137.69338041 170.75248149 -138.6875 167.9375 C-139.3475 167.9375 -140.0075 167.9375 -140.6875 167.9375 C-142.3125 165.9375 -142.3125 165.9375 -143.6875 163.9375 C-142.60676148 161.77602297 -141.49386736 160.52710328 -139.6875 158.9375 C-139.0275 158.9375 -138.3675 158.9375 -137.6875 158.9375 C-137.1925 156.9575 -137.1925 156.9575 -136.6875 154.9375 C-135.6975 154.9375 -134.7075 154.9375 -133.6875 154.9375 C-133.6875 153.2875 -133.6875 151.6375 -133.6875 149.9375 C-133.3575 149.9375 -133.0275 149.9375 -132.6875 149.9375 C-132.6875 152.2475 -132.6875 154.5575 -132.6875 156.9375 C-129.55214678 155.6031308 -128.02134351 154.41256339 -126.2421875 151.515625 C-125.59334595 150.48103149 -125.59334595 150.48103149 -124.93139648 149.42553711 C-124.25379272 148.31770874 -124.25379272 148.31770874 -123.5625 147.1875 C-122.5950116 145.65072677 -121.62490798 144.11559722 -120.65234375 142.58203125 C-119.91733643 141.4211499 -119.91733643 141.4211499 -119.16748047 140.23681641 C-116.90504019 136.72186052 -114.53891642 133.28719285 -112.125 129.875 C-111.70782715 129.27397461 -111.2906543 128.67294922 -110.86083984 128.05371094 C-109.85516077 126.64300723 -108.77781675 125.28385982 -107.6875 123.9375 C-107.0275 123.9375 -106.3675 123.9375 -105.6875 123.9375 C-105.48125 123.256875 -105.275 122.57625 -105.0625 121.875 C-103.25854973 118.02110625 -100.7864655 114.85962236 -97.6875 111.9375 C-97.0275 111.9375 -96.3675 111.9375 -95.6875 111.9375 C-95.6875 111.2775 -95.6875 110.6175 -95.6875 109.9375 C-89.04397025 106.03751675 -83.36075336 105.14021543 -75.75 104.5 C-59.32650541 102.84175759 -42.81021311 100.47346025 -27.1875 94.9375 C-26.19919189 94.60045044 -26.19919189 94.60045044 -25.19091797 94.2565918 C-23.18819946 93.53489066 -23.18819946 93.53489066 -20.6875 91.9375 C-19.67714382 89.35679806 -19.67714382 89.35679806 -19.6875 86.9375 C-25.71930816 87.89055077 -31.56224717 89.14137546 -37.4375 90.8125 C-52.51782923 94.92112031 -68.06076372 97.44376426 -83.6875 97.9375 C-81.68991808 94.36684673 -79.55343124 91.54710241 -76.66796875 88.65234375 C-75.89259766 87.87439453 -75.11722656 87.09644531 -74.31835938 86.29492188 C-73.51205078 85.49634766 -72.70574219 84.69777344 -71.875 83.875 C-70.68293945 82.67133789 -70.68293945 82.67133789 -69.46679688 81.44335938 C-59.92594205 71.93407065 -52.4864976 68.98321097 -39.125 67.5625 C-23.09962677 65.77550655 -23.09962677 65.77550655 -8.6875 58.9375 C-8.3575 57.9475 -8.0275 56.9575 -7.6875 55.9375 C-13.48362067 55.73629088 -18.29760705 56.3714216 -23.875 57.875 C-31.18156156 59.73253195 -38.13381867 60.67476326 -45.6875 60.9375 C-44.32677139 57.85402178 -42.8274833 55.88275503 -40.34375 53.6171875 C-39.67875488 53.00367432 -39.01375977 52.39016113 -38.32861328 51.75805664 C-37.6220459 51.11602295 -36.91547852 50.47398926 -36.1875 49.8125 C-34.73561271 48.47674415 -33.28509232 47.13950104 -31.8359375 45.80078125 C-31.12791992 45.14674316 -30.41990234 44.49270508 -29.69042969 43.81884766 C-26.18159407 40.52300572 -22.84025173 37.07130053 -19.5078125 33.59765625 C-17.6875 31.9375 -17.6875 31.9375 -15.6875 31.9375 C-13.95087666 28.71234237 -12.7969072 25.42420834 -11.6875 21.9375 C-13.6675 21.2775 -15.6475 20.6175 -17.6875 19.9375 C-16.8125 15.0625 -16.8125 15.0625 -15.6875 13.9375 C-16.6775 13.2775 -17.6675 12.6175 -18.6875 11.9375 C-19.1825 10.9475 -19.1825 10.9475 -19.6875 9.9375 C-18.87925781 9.55078125 -18.07101562 9.1640625 -17.23828125 8.765625 C-16.16964844 8.24484375 -15.10101563 7.7240625 -14 7.1875 C-12.94425781 6.67703125 -11.88851562 6.1665625 -10.80078125 5.640625 C-7.63430259 4.02902932 -7.63430259 4.02902932 -4.9609375 1.73046875 C-2.6875 -0.0625 -2.6875 -0.0625 0 0 Z " fill="#305D1E" transform="translate(354.6875,88.0625)"/>
<path d="M0 0 C0.556875 0.2475 1.11375 0.495 1.6875 0.75 C2.04771876 3.90191419 1.90180579 5.41068249 0.1875 8.125 C-2.35719707 10.79693192 -5.03488146 13.1404784 -7.83984375 15.53125 C-11.54772172 18.85838221 -15.00773898 22.42183092 -18.5065918 25.96606445 C-22.1673949 29.65584913 -25.91913164 33.15886449 -29.921875 36.48046875 C-31.4473863 37.72057156 -31.4473863 37.72057156 -32.3125 39.75 C-24.13125331 38.66865261 -16.21328492 37.12985626 -8.22680664 35.07128906 C1.47816536 32.64533268 1.47816536 32.64533268 5.6875 34.75 C5.47265625 36.5859375 5.47265625 36.5859375 4.6875 38.75 C2.68359375 40.1640625 2.68359375 40.1640625 0.125 41.375 C-0.70128906 41.77976563 -1.52757812 42.18453125 -2.37890625 42.6015625 C-10.78381345 45.89189901 -19.46771456 46.56228226 -28.38085938 47.4296875 C-37.22977659 48.41601393 -44.54540452 50.49049295 -51.125 56.75 C-51.94484375 57.52472656 -52.7646875 58.29945313 -53.609375 59.09765625 C-54.50140625 59.97292969 -55.3934375 60.84820312 -56.3125 61.75 C-57.10237305 62.51932861 -57.10237305 62.51932861 -57.90820312 63.30419922 C-64.32812325 68.99520485 -64.32812325 68.99520485 -69.3125 75.75 C-59.80142482 75.24094635 -50.62176389 74.15140234 -41.25 72.4375 C-40.08662109 72.23705078 -38.92324219 72.03660156 -37.72460938 71.83007812 C-30.66103964 70.56044372 -23.94133398 68.83952503 -17.13623047 66.55493164 C-13.3532146 65.47654643 -10.21408746 65.44399314 -6.3125 65.75 C-6.3125 67.4 -6.3125 69.05 -6.3125 70.75 C-18.85058694 76.99345554 -31.68567722 80.10615354 -45.4362793 82.13305664 C-47.51054162 82.43905512 -49.58240502 82.75845575 -51.65429688 83.08007812 C-58.46221338 84.12160794 -65.23827122 85.01780084 -72.11425781 85.45996094 C-75.22477563 85.87036689 -77.63492523 87.17091744 -80.3125 88.75 C-80.9725 88.75 -81.6325 88.75 -82.3125 88.75 C-82.3125 89.41 -82.3125 90.07 -82.3125 90.75 C-83.97916667 92.41666667 -85.64583333 94.08333333 -87.3125 95.75 C-88.22949084 97.00565223 -89.1255542 98.27685648 -90 99.5625 C-90.763125 100.614375 -91.52625 101.66625 -92.3125 102.75 C-92.9725 102.75 -93.6325 102.75 -94.3125 102.75 C-94.58489502 103.32347168 -94.85729004 103.89694336 -95.13793945 104.48779297 C-96.32353712 106.77125752 -97.64729145 108.82655233 -99.10546875 110.9453125 C-99.65025879 111.7396167 -100.19504883 112.5339209 -100.75634766 113.35229492 C-101.33175293 114.1847876 -101.9071582 115.01728027 -102.5 115.875 C-103.37857666 117.14790894 -103.37857666 117.14790894 -104.27490234 118.4465332 C-105.43272743 120.12353284 -106.59123697 121.80006016 -107.75048828 123.47607422 C-109.05874526 125.38059211 -110.34745309 127.29493646 -111.62109375 129.22265625 C-112.52021484 130.56650391 -112.52021484 130.56650391 -113.4375 131.9375 C-113.93507812 132.69417969 -114.43265625 133.45085937 -114.9453125 134.23046875 C-115.39648438 134.73191406 -115.84765625 135.23335937 -116.3125 135.75 C-117.3025 135.75 -118.2925 135.75 -119.3125 135.75 C-120.70347893 120.04739336 -112.29904276 108.09715907 -102.63671875 96.49609375 C-100.8037001 94.32941427 -98.95283349 92.17842494 -97.1015625 90.02734375 C-94.23693192 86.68460371 -91.46694015 83.27613731 -88.75 79.8125 C-87.94433594 78.79285156 -87.13867188 77.77320313 -86.30859375 76.72265625 C-82.36258316 70.8461121 -81.97366966 65.22935444 -81.5 58.375 C-80.81721374 49.94565201 -79.49744265 41.77317498 -77.75 33.5 C-77.41681763 31.91952881 -77.41681763 31.91952881 -77.0769043 30.30712891 C-75.45980192 22.89730192 -75.45980192 22.89730192 -74.3125 21.75 C-72.31291636 21.70919217 -70.31204746 21.70745644 -68.3125 21.75 C-68.73700433 30.03515348 -69.78820318 38.03417181 -71.21923828 46.19433594 C-72.230032 52.02863228 -72.93483395 57.8375728 -73.3125 63.75 C-67.72871572 58.94212619 -62.25504426 54.19813646 -57.625 48.4375 C-56.4803125 47.1071875 -56.4803125 47.1071875 -55.3125 45.75 C-54.6525 45.75 -53.9925 45.75 -53.3125 45.75 C-53.3125 45.09 -53.3125 44.43 -53.3125 43.75 C-52.6525 43.75 -51.9925 43.75 -51.3125 43.75 C-51.003125 42.96625 -50.69375 42.1825 -50.375 41.375 C-49.3125 38.75 -49.3125 38.75 -48.3125 36.75 C-48.12701319 35.0470423 -47.99164214 33.33847532 -47.8828125 31.62890625 C-47.80933594 30.61119141 -47.73585938 29.59347656 -47.66015625 28.54492188 C-47.51202254 26.39438426 -47.37136505 24.24331828 -47.23828125 22.09179688 C-47.16222656 21.07279297 -47.08617187 20.05378906 -47.0078125 19.00390625 C-46.94609863 18.06877197 -46.88438477 17.1336377 -46.82080078 16.17016602 C-46.3125 13.75 -46.3125 13.75 -45.01904297 11.85913086 C-44.1743042 11.31011108 -44.1743042 11.31011108 -43.3125 10.75 C-41.9925 11.08 -40.6725 11.41 -39.3125 11.75 C-39.3125 18.02 -39.3125 24.29 -39.3125 30.75 C-37.559375 29.285625 -35.80625 27.82125 -34 26.3125 C-28.6875 21.875 -28.6875 21.875 -25.3125 20.75 C-25.3125 20.09 -25.3125 19.43 -25.3125 18.75 C-20.84191176 14.75 -20.84191176 14.75 -18.3125 14.75 C-18.3125 14.09 -18.3125 13.43 -18.3125 12.75 C-16.63714541 11.23015117 -14.89544378 9.78293547 -13.125 8.375 C-12.16207031 7.60414062 -11.19914062 6.83328125 -10.20703125 6.0390625 C-9.25183594 5.28367187 -8.29664063 4.52828125 -7.3125 3.75 C-6.4153125 2.98945312 -5.518125 2.22890625 -4.59375 1.4453125 C-2.3125 -0.25 -2.3125 -0.25 0 0 Z " fill="#9BBF7E" transform="translate(341.3125,109.25)"/>
<path d="M0 0 C0.98794556 0.00012085 0.98794556 0.00012085 1.99584961 0.00024414 C3.95560903 -0.00190236 5.91532936 -0.02028603 7.875 -0.0390625 C19.95542954 -0.05752469 32.27251571 0.11213841 41.75195312 8.43554688 C42.55632812 9.34304688 43.36070312 10.25054687 44.18945312 11.18554688 C44.75664062 11.76175781 45.32382812 12.33796875 45.90820312 12.93164062 C53.8345673 21.27783341 55.75833749 29.23329033 55.67114258 40.48608398 C55.39449736 48.21024565 53.49385487 54.72894426 49.18945312 61.18554688 C48.52945313 61.18554688 47.86945313 61.18554688 47.18945312 61.18554688 C46.80080078 62.06726563 46.80080078 62.06726563 46.40429688 62.96679688 C42.87456644 69.41337851 36.42444683 73.06509594 29.68286133 75.40039062 C22.24119315 77.07293272 14.58654056 76.58951916 7.00195312 76.43554688 C5.269552 76.41544227 3.53712823 76.39719853 1.8046875 76.38085938 C-2.4009589 76.33719744 -6.60549733 76.26839244 -10.81054688 76.18554688 C-10.83367133 66.42403699 -10.85146249 56.66253358 -10.86235905 46.90100193 C-10.86758765 42.36880593 -10.87468488 37.83662861 -10.88598633 33.30444336 C-10.89681602 28.93431857 -10.90282388 24.5642118 -10.90542412 20.19407463 C-10.90727822 18.52303725 -10.91089855 16.8520009 -10.91627693 15.18097115 C-10.92348846 12.84857136 -10.92453777 10.51624695 -10.92407227 8.18383789 C-10.92766754 7.48612778 -10.93126282 6.78841766 -10.93496704 6.06956482 C-10.91775528 -1.84898006 -7.00238991 0.03246858 0 0 Z M2.18945312 13.18554688 C2.18945312 30.01554687 2.18945312 46.84554688 2.18945312 64.18554688 C19.79801949 64.74601912 19.79801949 64.74601912 34.18945312 57.18554688 C40.02321616 50.39569489 41.6572564 44.40475351 41.50585938 35.48242188 C40.80172152 28.1454793 37.79732103 22.9522346 32.18945312 18.18554688 C31.55007813 17.62867188 30.91070312 17.07179688 30.25195312 16.49804688 C21.4068455 10.86934202 13.01550945 13.18554688 2.18945312 13.18554688 Z " fill="#345F23" transform="translate(303.810546875,304.814453125)"/>
<path d="M0 0 C6.53278786 -0.02527002 13.06556321 -0.04283292 19.59838867 -0.05493164 C21.82267732 -0.05997317 24.04696263 -0.06680623 26.27124023 -0.07543945 C29.46078309 -0.08751298 32.65028229 -0.09322996 35.83984375 -0.09765625 C37.34139259 -0.10539818 37.34139259 -0.10539818 38.87327576 -0.11329651 C39.79415482 -0.11337204 40.71503387 -0.11344757 41.66381836 -0.11352539 C42.47878281 -0.115746 43.29374725 -0.11796661 44.13340759 -0.12025452 C46 0 46 0 47 1 C47 4.96 47 8.92 47 13 C36.11 13 25.22 13 14 13 C14 19.27 14 25.54 14 32 C24.23 32 34.46 32 45 32 C45 35.63 45 39.26 45 43 C44 44 44 44 41.13256836 44.11352539 C39.88096924 44.10828857 38.62937012 44.10305176 37.33984375 44.09765625 C36.34314415 44.09553383 36.34314415 44.09553383 35.3263092 44.09336853 C33.19666101 44.08775518 31.06711661 44.07520054 28.9375 44.0625 C27.49674631 44.05748671 26.05599097 44.05292351 24.61523438 44.04882812 C21.07675042 44.03863076 17.53849187 44.0190583 14 44 C14 50.6 14 57.2 14 64 C16.37058594 63.98839844 18.74117187 63.97679687 21.18359375 63.96484375 C23.47045762 63.95705304 25.75732004 63.95097636 28.04418945 63.94506836 C29.63794614 63.94002843 31.23169819 63.9331965 32.82543945 63.92456055 C35.11150253 63.91248001 37.39750467 63.90676845 39.68359375 63.90234375 C40.40026718 63.89718246 41.11694061 63.89202118 41.85533142 63.88670349 C43.57063672 63.88650737 45.28581266 63.93807993 47 64 C48 65 48 65 48.09765625 67.50390625 C48.08605469 68.51324219 48.07445312 69.52257812 48.0625 70.5625 C48.05347656 71.57441406 48.04445312 72.58632813 48.03515625 73.62890625 C48.02355469 74.41136719 48.01195312 75.19382812 48 76 C41.18238106 76.0252689 34.36477411 76.04283244 27.54711914 76.05493164 C25.22582549 76.05997333 22.90453503 76.06680651 20.58325195 76.07543945 C17.25471205 76.08751225 13.92621398 76.09322979 10.59765625 76.09765625 C9.03048607 76.10539818 9.03048607 76.10539818 7.43165588 76.11329651 C6.47073532 76.11337204 5.50981476 76.11344757 4.51977539 76.11352539 C3.66928116 76.115746 2.81878693 76.11796661 1.94252014 76.12025452 C0 76 0 76 -1 75 C-1.06498756 72.65643505 -1.0651922 70.34413267 -1.02172852 68.00170898 C-1.01212097 67.27004517 -1.00251343 66.53838135 -0.99261475 65.7845459 C-0.9595118 63.35496738 -0.91922292 60.92556242 -0.87890625 58.49609375 C-0.85461615 56.81601075 -0.83077205 55.13592124 -0.80735779 53.45582581 C-0.74440631 49.0252036 -0.67537124 44.59469596 -0.60510254 40.16418457 C-0.53451874 35.64661901 -0.4696423 31.12897196 -0.40429688 26.61132812 C-0.27514203 17.74079588 -0.13956524 8.87037413 0 0 Z " fill="#335E23" transform="translate(78,305)"/>
<path d="M0 0 C7.10431838 3.81207328 11.35082454 9.73997362 13.875 17.3125 C13.875 21.9325 13.875 26.5525 13.875 31.3125 C0.675 31.3125 -12.525 31.3125 -26.125 31.3125 C-22.85653552 40.10962018 -22.85653552 40.10962018 -16.125 44.3125 C-12.63995906 44.963425 -9.59755117 45.08170074 -6.125 44.3125 C-4.30210401 42.99657539 -4.30210401 42.99657539 -2.75 41.3125 C-0.41214436 38.9126771 0.57579168 38.35098581 3.97265625 37.9140625 C6.96066714 37.935031 9.89915402 38.04863188 12.875 38.3125 C13.484375 40.12109375 13.484375 40.12109375 13.875 42.3125 C11.95356127 45.67501778 9.89439901 48.84208262 6.875 51.3125 C6.215 51.3125 5.555 51.3125 4.875 51.3125 C4.875 51.9725 4.875 52.6325 4.875 53.3125 C-3.54171667 57.56835674 -11.96703675 59.14175413 -21.17578125 56.40625 C-23.55182197 55.46524377 -25.84522825 54.4652514 -28.125 53.3125 C-28.125 52.6525 -28.125 51.9925 -28.125 51.3125 C-28.764375 51.044375 -29.40375 50.77625 -30.0625 50.5 C-32.125 49.3125 -32.125 49.3125 -33.125 46.3125 C-33.785 46.3125 -34.445 46.3125 -35.125 46.3125 C-38.56023971 39.84208123 -39.75896624 34.5455781 -39.625 27.25 C-39.64046875 26.40373047 -39.6559375 25.55746094 -39.671875 24.68554688 C-39.62408835 16.93813683 -36.9663403 10.48558497 -31.703125 4.69921875 C-23.02253164 -2.92853037 -10.66053698 -4.34252258 0 0 Z M-20.125 11.3125 C-23.89265159 15.16578004 -25.04560764 16.91553818 -26.125 22.3125 C-17.215 22.3125 -8.305 22.3125 0.875 22.3125 C0.07626546 16.47538743 0.07626546 16.47538743 -3.125 12.3125 C-3.785 12.3125 -4.445 12.3125 -5.125 12.3125 C-5.125 11.6525 -5.125 10.9925 -5.125 10.3125 C-12.91848961 8.91189755 -12.91848961 8.91189755 -20.125 11.3125 Z " fill="#376027" transform="translate(227.125,325.6875)"/>
<path d="M0 0 C6.9764907 4.18119644 11.77715251 9.77098167 13.9375 17.65625 C16.01985303 27.41727983 15.42107446 35.2538566 10.75 44.25 C4.83309187 51.28632318 -1.0657714 56.28014087 -10.3828125 57.3125 C-18.53972638 57.64628676 -25.26589075 56.29307595 -31.8203125 51.26953125 C-38.62229083 44.98209372 -41.64142473 38.96756646 -42.03076172 29.7590332 C-42.13312154 22.47337607 -41.75129921 16.20465884 -37.5625 10 C-37.15 9.36835938 -36.7375 8.73671875 -36.3125 8.0859375 C-27.99985802 -3.01332878 -12.39038982 -5.56148795 0 0 Z M-25.5625 16 C-28.36742462 20.88599772 -29.38541157 25.41897156 -28.5625 31 C-27.73485315 33.78260577 -26.70981538 36.32293078 -25.5625 39 C-24.9025 39 -24.2425 39 -23.5625 39 C-23.5625 39.66 -23.5625 40.32 -23.5625 41 C-18.75738122 43.88307127 -15.03604674 44.77724364 -9.5625 44 C-5.39564186 42.63775792 -3.40918806 41.15223215 -1.25 37.4375 C-0.693125 36.303125 -0.13625 35.16875 0.4375 34 C0.7675 33.34 1.0975 32.68 1.4375 32 C2.53867568 24.70077835 0.47711824 19.05942736 -3.5625 13 C-6.59229966 10.05676604 -9.34491654 9.74088365 -13.4375 9.4375 C-19.05172501 9.62157295 -22.11374607 11.66031797 -25.5625 16 Z " fill="#396229" transform="translate(406.5625,326)"/>
<path d="M0 0 C1.09570312 0.10183594 2.19140625 0.20367187 3.3203125 0.30859375 C4.16335937 0.39238281 5.00640625 0.47617187 5.875 0.5625 C9.06252871 8.28401351 11.8917811 16.10749657 14.625 24 C15.03621094 25.16982422 15.44742188 26.33964844 15.87109375 27.54492188 C16.25910156 28.66318359 16.64710938 29.78144531 17.046875 30.93359375 C17.5742627 32.4484436 17.5742627 32.4484436 18.11230469 33.99389648 C18.875 36.5625 18.875 36.5625 18.875 39.5625 C19.535 39.5625 20.195 39.5625 20.875 39.5625 C21.15424316 38.39775146 21.43348633 37.23300293 21.72119141 36.03295898 C23.27654724 29.82168633 25.39643312 23.80884164 27.50585938 17.76928711 C28.00545601 16.32966858 28.49788188 14.88754314 28.98339844 13.44311523 C29.68949986 11.34305587 30.41635052 9.25127688 31.1484375 7.16015625 C31.78918213 5.29629272 31.78918213 5.29629272 32.44287109 3.39477539 C33.875 0.5625 33.875 0.5625 35.90234375 -0.3371582 C36.55332031 -0.370271 37.20429688 -0.40338379 37.875 -0.4375 C38.63039062 -0.50453125 39.38578125 -0.5715625 40.1640625 -0.640625 C40.93492187 -0.65609375 41.70578125 -0.6715625 42.5 -0.6875 C43.66402344 -0.72617187 43.66402344 -0.72617187 44.8515625 -0.765625 C45.51929688 -0.65734375 46.18703125 -0.5490625 46.875 -0.4375 C47.535 0.5525 48.195 1.5425 48.875 2.5625 C48.1796875 5.30078125 48.1796875 5.30078125 46.75 8.875 C46.48791748 9.54144531 46.22583496 10.20789063 45.95581055 10.89453125 C44.94313126 13.45639024 43.90806228 16.00879062 42.875 18.5625 C41.8830897 21.04517011 40.89215729 23.52821348 39.90234375 26.01171875 C38.30774014 30.01030996 36.71083226 34.00791652 35.10302734 38.0012207 C32.62283043 44.16333157 30.16601662 50.3271558 27.875 56.5625 C22.595 56.5625 17.315 56.5625 11.875 56.5625 C10.988125 54.17 10.10125 51.7775 9.1875 49.3125 C7.34656675 44.37152112 5.45091054 39.47329921 3.375 34.625 C1.00227315 29.03761096 -1.01636203 23.35181165 -2.98242188 17.61157227 C-4.13421334 14.26940478 -5.34254868 11.02074346 -6.8046875 7.80078125 C-8.125 4.5625 -8.125 4.5625 -8.125 0.5625 C-5.28943413 -0.85528293 -3.1341294 -0.30007622 0 0 Z " fill="#366027" transform="translate(138.125,324.4375)"/>
<path d="M0 0 C0.02686553 1.97909398 0.04633375 3.95828971 0.0625 5.9375 C0.07410156 7.03964844 0.08570313 8.14179688 0.09765625 9.27734375 C0 12 0 12 -1 13 C-2.78405598 13.37192046 -4.57776915 13.69810295 -6.375 14 C-9.38236907 14.50784069 -12.10209163 15.03403054 -15 16 C-15 16.66 -15 17.32 -15 18 C-15.66 18 -16.32 18 -17 18 C-18.61836122 23.01691979 -19.28595573 27.36716264 -19.4140625 32.68359375 C-19.43342865 33.38396255 -19.4527948 34.08433136 -19.4727478 34.80592346 C-19.53194891 37.01632981 -19.57868725 39.22678995 -19.625 41.4375 C-19.66323476 42.94728681 -19.70228958 44.4570531 -19.7421875 45.96679688 C-19.8375997 49.64434199 -19.92184699 53.32204294 -20 57 C-22.14576637 57.02685938 -24.29162645 57.04633088 -26.4375 57.0625 C-27.63246094 57.07410156 -28.82742187 57.08570313 -30.05859375 57.09765625 C-33 57 -33 57 -34 56 C-34.0987517 54.31744765 -34.12798904 52.63075972 -34.12939453 50.9453125 C-34.13254669 49.86749512 -34.13569885 48.78967773 -34.13894653 47.67919922 C-34.1369223 46.50631348 -34.13489807 45.33342773 -34.1328125 44.125 C-34.13376923 42.9302002 -34.13472595 41.73540039 -34.13571167 40.50439453 C-34.13639371 37.9723302 -34.13453778 35.44026412 -34.13037109 32.90820312 C-34.12502321 29.0168874 -34.13031533 25.12568711 -34.13671875 21.234375 C-34.13605797 18.78124974 -34.13477682 16.32812456 -34.1328125 13.875 C-34.13483673 12.70211426 -34.13686096 11.52922852 -34.13894653 10.32080078 C-34.13579437 9.2429834 -34.13264221 8.16516602 -34.12939453 7.0546875 C-34.12859894 6.10062012 -34.12780334 5.14655273 -34.12698364 4.16357422 C-34 2 -34 2 -33 1 C-30.98035801 0.92755947 -28.95832876 0.91622812 -26.9375 0.9375 C-25.28041016 0.95103516 -25.28041016 0.95103516 -23.58984375 0.96484375 C-22.73519531 0.97644531 -21.88054687 0.98804688 -21 1 C-20.67 2.65 -20.34 4.3 -20 6 C-19.34 6 -18.68 6 -18 6 C-18 5.34 -18 4.68 -18 4 C-11.72912263 0.28392452 -7.24539726 -0.53449652 0 0 Z " fill="#325D22" transform="translate(284,324)"/>
<path d="M0 0 C0.77085937 -0.01546875 1.54171875 -0.0309375 2.3359375 -0.046875 C3.49996094 -0.08554687 3.49996094 -0.08554687 4.6875 -0.125 C5.68910156 0.03742188 5.68910156 0.03742188 6.7109375 0.203125 C7.3709375 1.193125 8.0309375 2.183125 8.7109375 3.203125 C8.00362019 5.75190634 7.21164363 8.02094138 6.2109375 10.453125 C5.79787354 11.50209961 5.79787354 11.50209961 5.37646484 12.57226562 C4.50066202 14.78785303 3.60621781 16.99534637 2.7109375 19.203125 C2.12894427 20.66616446 1.54818878 22.12969697 0.96875 23.59375 C-0.43627569 27.1360677 -1.85803795 30.67123463 -3.2890625 34.203125 C-3.7840625 32.718125 -3.7840625 32.718125 -4.2890625 31.203125 C-6.76645604 30.29474737 -8.62485734 30.203125 -11.2890625 30.203125 C-11.6190625 30.863125 -11.9490625 31.523125 -12.2890625 32.203125 C-12.9490625 32.203125 -13.6090625 32.203125 -14.2890625 32.203125 C-14.6190625 33.193125 -14.9490625 34.183125 -15.2890625 35.203125 C-15.9490625 35.203125 -16.6090625 35.203125 -17.2890625 35.203125 C-17.6190625 35.863125 -17.9490625 36.523125 -18.2890625 37.203125 C-17.18797668 30.80263447 -14.86704767 24.7492699 -12.73364258 18.63623047 C-12.22727638 17.17608002 -11.72796166 15.71346582 -11.2355957 14.24853516 C-10.52289931 12.12870809 -9.78942177 10.01715555 -9.05078125 7.90625 C-8.83395187 7.2490094 -8.6171225 6.5917688 -8.39372253 5.91461182 C-7.73706055 4.08300781 -7.73706055 4.08300781 -6.2890625 1.203125 C-4.05503212 0.20556446 -2.42393636 0.21509333 0 0 Z " fill="#3A632A" transform="translate(178.2890625,323.796875)"/>
<path d="M0 0 C0.66 0 1.32 0 2 0 C3.25664978 2.90600261 4 4.79604584 4 8 C4.66 8 5.32 8 6 8 C6 8.66 6 9.32 6 10 C10.46334184 11.72293135 14.10201231 12.22240791 18.875 12.125 C20.02742188 12.10695313 21.17984375 12.08890625 22.3671875 12.0703125 C23.23601562 12.04710937 24.10484375 12.02390625 25 12 C25 12.66 25 13.32 25 14 C25.66 14 26.32 14 27 14 C27 14.66 27 15.32 27 16 C26.01 16.33 25.02 16.66 24 17 C24.495 18.98 24.495 18.98 25 21 C26.65 21.33 28.3 21.66 30 22 C26.11751857 25.88248143 21.53396486 26.1848316 16.25 26.375 C7.76602023 26.18600045 1.63260857 23.91201114 -4.5 18 C-7.78473083 14.55372503 -10 11.87318038 -10 7 C-9.01 7 -8.02 7 -7 7 C-6.34 9.31 -5.68 11.62 -5 14 C-4.01 14 -3.02 14 -2 14 C-1.34 12.68 -0.68 11.36 0 10 C1.65 10.33 3.3 10.66 5 11 C5 10.34 5 9.68 5 9 C4.34 9 3.68 9 3 9 C3 8.01 3 7.02 3 6 C2.34 6 1.68 6 1 6 C0.67 4.02 0.34 2.04 0 0 Z " fill="#3C652C" transform="translate(377,357)"/>
<path d="M0 0 C1.875 0.625 1.875 0.625 4 2 C6 8 6 8 6 21 C-6.87 21 -19.74 21 -33 21 C-33 20.01 -33 19.02 -33 18 C-32.34 18 -31.68 18 -31 18 C-31 17.34 -31 16.68 -31 16 C-31.66 15.34 -32.32 14.68 -33 14 C-24.09 14 -15.18 14 -6 14 C-6.495 9.05 -6.495 9.05 -7 4 C-3.535 3.505 -3.535 3.505 0 3 C0 2.01 0 1.02 0 0 Z " fill="#305B20" transform="translate(235,335)"/>
<path d="M0 0 C1.98 0.99 3.96 1.98 6 3 C5.93941406 3.65597168 5.87882812 4.31194336 5.81640625 4.98779297 C5.54333326 7.95010976 5.27164948 10.91255234 5 13.875 C4.85691406 15.42380859 4.85691406 15.42380859 4.7109375 17.00390625 C4.62070312 17.99003906 4.53046875 18.97617187 4.4375 19.9921875 C4.35371094 20.90339355 4.26992188 21.81459961 4.18359375 22.75341797 C3.97285005 24.95654726 3.97285005 24.95654726 4 27 C4.66 27 5.32 27 6 27 C6 27.99 6 28.98 6 30 C6.66 30 7.32 30 8 30 C8 30.66 8 31.32 8 32 C6.35 32 4.7 32 3 32 C2.67 33.32 2.34 34.64 2 36 C0.35 35.67 -1.3 35.34 -3 35 C-3.33 32.69 -3.66 30.38 -4 28 C-5.32 28 -6.64 28 -8 28 C-9.65497356 24.69005287 -9.10084335 21.00877 -9.0625 17.375 C-9.05798828 16.57320313 -9.05347656 15.77140625 -9.04882812 14.9453125 C-9.03703168 12.96350994 -9.01909605 10.98174567 -9 9 C-8.34 9 -7.68 9 -7 9 C-6.67 8.34 -6.34 7.68 -6 7 C-5.34 7 -4.68 7 -4 7 C-4 5.02 -4 3.04 -4 1 C-2.68 1.33 -1.36 1.66 0 2 C0 1.34 0 0.68 0 0 Z " fill="#356025" transform="translate(374,336)"/>
<path d="M0 0 C0.609375 1.80859375 0.609375 1.80859375 1 4 C-0.92143873 7.36251778 -2.98060099 10.52958262 -6 13 C-6.66 13 -7.32 13 -8 13 C-8 13.66 -8 14.32 -8 15 C-15.76199333 18.92480024 -22.37603795 19.48661855 -31 19 C-31 18.67 -31 18.34 -31 18 C-27.7 17.67 -24.4 17.34 -21 17 C-20.87625 15.948125 -20.7525 14.89625 -20.625 13.8125 C-19.72036471 8.29422472 -18.59922137 4.5668771 -14.0625 0.9375 C-9.69070942 -1.04967754 -4.68789593 -0.34135165 0 0 Z " fill="#527643" transform="translate(240,364)"/>
<path d="M0 0 C0 3.63 0 7.26 0 11 C-0.99 10.67 -1.98 10.34 -3 10 C-4.73960247 9.97526966 -6.48035517 10.0087581 -8.21875 10.078125 C-9.74048828 10.11679687 -9.74048828 10.11679687 -11.29296875 10.15625 C-13.43150294 10.21876501 -15.56963735 10.29690249 -17.70703125 10.390625 C-20.5490255 10.44840379 -23.19328181 10.45307123 -26 10 C-28.28125 7.734375 -28.28125 7.734375 -29 5 C-28.54492188 2.82910156 -28.54492188 2.82910156 -28 1 C-23.52084435 0.83303633 -19.0416737 0.66647858 -14.5625 0.5 C-13.28310547 0.45230469 -12.00371094 0.40460938 -10.68554688 0.35546875 C-9.47060547 0.31035156 -8.25566406 0.26523437 -7.00390625 0.21875 C-5.87799072 0.17685547 -4.7520752 0.13496094 -3.59204102 0.09179688 C-1 0 -1 0 0 0 Z " fill="#2E5B1D" transform="translate(122,338)"/>
<path d="M0 0 C0.02686553 1.97909398 0.04633375 3.95828971 0.0625 5.9375 C0.07410156 7.03964844 0.08570313 8.14179688 0.09765625 9.27734375 C0 12 0 12 -1 13 C-2.78405598 13.37192046 -4.57776915 13.69810295 -6.375 14 C-9.38236907 14.50784069 -12.10209163 15.03403054 -15 16 C-15 16.66 -15 17.32 -15 18 C-15.66 17.67 -16.32 17.34 -17 17 C-17 16.01 -17 15.02 -17 14 C-17.33 13.01 -17.66 12.02 -18 11 C-17.67 10.01 -17.34 9.02 -17 8 C-18.32 8.33 -19.64 8.66 -21 9 C-21 6.69 -21 4.38 -21 2 C-20.67 3.32 -20.34 4.64 -20 6 C-19.34 6 -18.68 6 -18 6 C-18 5.34 -18 4.68 -18 4 C-11.72912263 0.28392452 -7.24539726 -0.53449652 0 0 Z " fill="#3B632B" transform="translate(284,324)"/>
<path d="M0 0 C3.13943834 6.03738142 5.57094287 12.31597923 7.75 18.75 C7.98332031 19.40871094 8.21664062 20.06742187 8.45703125 20.74609375 C10.11742329 25.64773013 10.11742329 25.64773013 9 29 C7.01276732 29.70381157 5.01222047 30.3711811 3 31 C2.67 31.66 2.34 32.32 2 33 C1.01 33.66 0.02 34.32 -1 35 C-1.81832722 33.10667466 -2.62942268 31.21022267 -3.4375 29.3125 C-3.88996094 28.25675781 -4.34242188 27.20101563 -4.80859375 26.11328125 C-5.85447455 23.38027471 -6.53520748 20.87957663 -7 18 C-6.01 18.33 -5.02 18.66 -4 19 C-4 18.01 -4 17.02 -4 16 C-3.01 16 -2.02 16 -1 16 C0.4216319 12.6828589 1.39009109 9.55780196 2 6 C0.68 5.67 -0.64 5.34 -2 5 C-1.34 4.67 -0.68 4.34 0 4 C0 2.68 0 1.36 0 0 Z " fill="#3B652C" transform="translate(147,335)"/>
<path d="M0 0 C1.20970459 0.00523682 2.41940918 0.01047363 3.66577148 0.01586914 C4.97094727 0.0190918 6.27612305 0.02231445 7.62084961 0.02563477 C9.00952213 0.03399138 10.39819401 0.04245634 11.78686523 0.05102539 C13.17944179 0.05603873 14.57202005 0.06060193 15.96459961 0.06469727 C19.38456394 0.07653105 22.80444367 0.09301659 26.22436523 0.11352539 C26.22436523 0.44352539 26.22436523 0.77352539 26.22436523 1.11352539 C16.98436523 1.11352539 7.74436523 1.11352539 -1.77563477 1.11352539 C-1.44563477 3.09352539 -1.11563477 5.07352539 -0.77563477 7.11352539 C-0.71815771 9.42060084 -0.71530548 11.72939677 -0.75390625 14.03686523 C-0.76831757 15.03304367 -0.76831757 15.03304367 -0.78302002 16.04934692 C-0.8157602 18.2245021 -0.85618571 20.39944037 -0.89672852 22.57446289 C-0.92105413 24.09045671 -0.94489643 25.60645835 -0.96827698 27.12246704 C-1.03087518 31.09764574 -1.10000949 35.07268454 -1.17053223 39.04772949 C-1.2414359 43.10996166 -1.30612066 47.17229241 -1.37133789 51.23461914 C-1.5000371 59.19436378 -1.63564549 67.15397134 -1.77563477 75.11352539 C-0.66731796 74.94897354 0.44099884 74.78442169 1.582901 74.61488342 C4.35929707 74.23262827 6.64843407 74.02936522 9.40795898 74.23461914 C10.10727539 74.28295898 10.8065918 74.33129883 11.52709961 74.38110352 C12.23157227 74.43717773 12.93604492 74.49325195 13.66186523 74.55102539 C14.3934082 74.60323242 15.12495117 74.65543945 15.87866211 74.70922852 C17.66105146 74.83737416 19.44279094 74.97450699 21.22436523 75.11352539 C21.22436523 75.44352539 21.22436523 75.77352539 21.22436523 76.11352539 C12.97436523 76.11352539 4.72436523 76.11352539 -3.77563477 76.11352539 C-3.79818669 66.35201139 -3.81655037 56.59051456 -3.82744694 46.82898045 C-3.83267554 42.29678445 -3.83977277 37.76460712 -3.85107422 33.23242188 C-3.86190391 28.86229709 -3.86791177 24.49219031 -3.87051201 20.12205315 C-3.87236611 18.45101576 -3.87598644 16.77997942 -3.88136482 15.10894966 C-3.88857635 12.77654988 -3.88962566 10.44422546 -3.88916016 8.11181641 C-3.89275543 7.41410629 -3.89635071 6.71639618 -3.90005493 5.99754333 C-3.88736426 0.1589959 -3.88736426 0.1589959 0 0 Z " fill="#798F6D" transform="translate(296.775634765625,304.886474609375)"/>
<path d="M0 0 C2.0625 0.4375 2.0625 0.4375 4 1 C3.34 1 2.68 1 2 1 C2 18.16 2 35.32 2 53 C2.66 53 3.32 53 4 53 C4 53.66 4 54.32 4 55 C2.0625 55.5625 2.0625 55.5625 0 56 C-1.68012342 54.31987658 -1.12747339 52.24912808 -1.12939453 49.9453125 C-1.13254669 48.86749512 -1.13569885 47.78967773 -1.13894653 46.67919922 C-1.1369223 45.50631348 -1.13489807 44.33342773 -1.1328125 43.125 C-1.13376923 41.9302002 -1.13472595 40.73540039 -1.13571167 39.50439453 C-1.13639371 36.9723302 -1.13453778 34.44026412 -1.13037109 31.90820312 C-1.12502321 28.0168874 -1.13031533 24.12568711 -1.13671875 20.234375 C-1.13605797 17.78124974 -1.13477682 15.32812456 -1.1328125 12.875 C-1.13483673 11.70211426 -1.13686096 10.52922852 -1.13894653 9.32080078 C-1.13579437 8.2429834 -1.13264221 7.16516602 -1.12939453 6.0546875 C-1.12859894 5.10062012 -1.12780334 4.14655273 -1.12698364 3.16357422 C-1 1 -1 1 0 0 Z " fill="#537245" transform="translate(251,325)"/>
<path d="M0 0 C5.10609017 1.75065949 7.71698719 3.93900137 10.1875 8.75 C9.5275 8.75 8.8675 8.75 8.1875 8.75 C8.1875 9.74 8.1875 10.73 8.1875 11.75 C6.2075 12.41 4.2275 13.07 2.1875 13.75 C1.8575 15.4 1.5275 17.05 1.1875 18.75 C0.754375 18.151875 0.32125 17.55375 -0.125 16.9375 C-1.71931105 14.76024117 -1.71931105 14.76024117 -3.5 13.125 C-4.8125 11.75 -4.8125 11.75 -4.8125 9.75 C-6.1325 9.42 -7.4525 9.09 -8.8125 8.75 C-8.19375 8.688125 -7.575 8.62625 -6.9375 8.5625 C-4.56129337 7.91906685 -4.56129337 7.91906685 -3.5 5.3125 C-2.51817636 2.78555588 -2.51817636 2.78555588 -3.8125 0.75 C-1.8125 -0.25 -1.8125 -0.25 0 0 Z " fill="#406931" transform="translate(226.8125,326.25)"/>
<path d="M0 0 C0.495 0.99 0.495 0.99 1 2 C-9.89 2 -20.78 2 -32 2 C-32 8.27 -32 14.54 -32 21 C-21.77 21 -11.54 21 -1 21 C-1 24.63 -1 28.26 -1 32 C-1.33 32 -1.66 32 -2 32 C-2.33 29.03 -2.66 26.06 -3 23 C-12.9 23.33 -22.8 23.66 -33 24 C-34.25050287 21.49899426 -34.02993449 19.99656948 -33.87890625 17.2109375 C-33.83580322 16.36321777 -33.7927002 15.51549805 -33.74829102 14.64208984 C-33.68697998 13.5639502 -33.62566895 12.48581055 -33.5625 11.375 C-33.376875 7.95125 -33.19125 4.5275 -33 1 C-22.11 0.67 -11.22 0.34 0 0 Z " fill="#859D75" transform="translate(124,316)"/>
<path d="M0 0 C3.78080393 1.26026798 4.77295425 2.93546534 7.1875 6.0625 C7.90292969 6.98160156 8.61835938 7.90070313 9.35546875 8.84765625 C9.89816406 9.55792969 10.44085938 10.26820313 11 11 C10.67 11.66 10.34 12.32 10 13 C9.34 13 8.68 13 8 13 C7.34 13.66 6.68 14.32 6 15 C3.875 15.625 3.875 15.625 2 16 C2.185625 16.556875 2.37125 17.11375 2.5625 17.6875 C3.07551165 20.399133 2.6640724 22.34371039 2 25 C-4 16 -4 16 -4 13 C-4.99 12.67 -5.98 12.34 -7 12 C-4.3260876 11.10869587 -1.76276177 10.52268466 1 10 C1.33 9.01 1.66 8.02 2 7 C1.34 6.34 0.68 5.68 0 5 C-0.125 2.375 -0.125 2.375 0 0 Z " fill="#426731" transform="translate(343,312)"/>
<path d="M0 0 C2 1 2 1 3 3 C1.36587557 4.70840281 0.13093906 5.93453047 -2 7 C-2 7.99 -2 8.98 -2 10 C-1.34 10 -0.68 10 0 10 C0.33 10.33 0.66 10.66 1 11 C1 9.68 1 8.36 1 7 C1.66 7.33 2.32 7.66 3 8 C3 8.66 3 9.32 3 10 C4.32 10.66 5.64 11.32 7 12 C6.236875 12.598125 5.47375 13.19625 4.6875 13.8125 C2.6516425 15.46959332 0.8021721 17.10297674 -1 19 C-1 17.02 -1 15.04 -1 13 C-2.83284443 11.87483915 -2.83284443 11.87483915 -5 11 C-5.99 11.33 -6.98 11.66 -8 12 C-8.66 11.67 -9.32 11.34 -10 11 C-10 12.98 -10 14.96 -10 17 C-10.66 17 -11.32 17 -12 17 C-12.33 17.99 -12.66 18.98 -13 20 C-14.0662628 16.8153343 -14.04185251 15.20145054 -12.5625 12.1875 C-9.7900043 6.99271859 -5.2824609 2.64123045 0 0 Z " fill="#537441" transform="translate(380,326)"/>
<path d="M0 0 C0 0.33 0 0.66 0 1 C-1.2065625 1.185625 -1.2065625 1.185625 -2.4375 1.375 C-3.283125 1.58125 -4.12875 1.7875 -5 2 C-5.33 2.66 -5.66 3.32 -6 4 C-5.34 4.33 -4.68 4.66 -4 5 C-5.36983503 8.16115776 -5.9890638 8.9927092 -9 11 C-9 11.33 -9 11.66 -9 12 C-10.65 12 -12.3 12 -14 12 C-14.66 10.68 -15.32 9.36 -16 8 C-15.34 9.98 -14.68 11.96 -14 14 C-14.99 14.495 -14.99 14.495 -16 15 C-16.33 13.68 -16.66 12.36 -17 11 C-17.66 11 -18.32 11 -19 11 C-18.43623218 7.05362526 -17.4640248 4.16803189 -15 1 C-10.42780932 -0.80116603 -4.86173496 -0.08496236 0 0 Z " fill="#2E5A1E" transform="translate(397,325)"/>
<path d="M0 0 C1.98 0.99 3.96 1.98 6 3 C6 3.99 6 4.98 6 6 C5.01 6.495 5.01 6.495 4 7 C3.690625 8.155 3.38125 9.31 3.0625 10.5 C2.711875 11.655 2.36125 12.81 2 14 C1.01 14.33 0.02 14.66 -1 15 C-1.3721042 16.32303717 -1.70630173 17.65737935 -2 19 C-2.66 19.33 -3.32 19.66 -4 20 C-4 19.34 -4 18.68 -4 18 C-4.66 17.67 -5.32 17.34 -6 17 C-5.34 16.67 -4.68 16.34 -4 16 C-4 15.01 -4 14.02 -4 13 C-5.32 12.67 -6.64 12.34 -8 12 C-7.62403791 9.21788056 -7.32681541 7.4120716 -5.5625 5.1875 C-4 4 -4 4 -2 4 C-1.34 2.68 -0.68 1.36 0 0 Z " fill="#2D5B1D" transform="translate(168,352)"/>
<path d="M0 0 C3.3 0 6.6 0 10 0 C8.68 0.33 7.36 0.66 6 1 C6.391875 2.258125 6.78375 3.51625 7.1875 4.8125 C7.85546875 6.95703125 7.85546875 6.95703125 8 9 C6.84375 10.75 6.84375 10.75 5 12 C2.73828125 12.29296875 2.73828125 12.29296875 0.3125 12.1875 C-0.89986328 12.14689453 -0.89986328 12.14689453 -2.13671875 12.10546875 C-2.75160156 12.07066406 -3.36648437 12.03585937 -4 12 C-2.84414715 8.08788267 -1.64465038 5.1254959 1 2 C0.67 1.34 0.34 0.68 0 0 Z " fill="#2B5D1C" transform="translate(229,365)"/>
<path d="M0 0 C2.82957829 0.36276645 5.29084291 1.09694764 8 2 C8 2.66 8 3.32 8 4 C8.66 4.33 9.32 4.66 10 5 C10 5.99 10 6.98 10 8 C10.33 8.66 10.66 9.32 11 10 C9.26626458 12.09873235 8.10025916 12.96490929 5.5 13.875 C3 14 3 14 1.1875 12.5625 C0.795625 12.046875 0.40375 11.53125 0 11 C0.99 10.67 1.98 10.34 3 10 C2.67 8.68 2.34 7.36 2 6 C1.34 6 0.68 6 0 6 C-0.66 4.68 -1.32 3.36 -2 2 C-1.34 1.34 -0.68 0.68 0 0 Z " fill="#2C5B1C" transform="translate(335,310)"/>
<path d="M0 0 C1.4583982 0.00399197 2.91679743 0.01875035 4.375 0.04296875 C5.11234375 0.04361328 5.8496875 0.04425781 6.609375 0.04492188 C12.09398191 0.08995971 12.09398191 0.08995971 14.375 1.23046875 C14.375 2.55046875 14.375 3.87046875 14.375 5.23046875 C13.240625 5.68421875 12.10625 6.13796875 10.9375 6.60546875 C7.32778308 7.80142681 7.32778308 7.80142681 6.375 10.23046875 C4.52734375 10.86328125 4.52734375 10.86328125 2.3125 11.35546875 C1.57902344 11.52304687 0.84554688 11.690625 0.08984375 11.86328125 C-0.47605469 11.98445313 -1.04195313 12.105625 -1.625 12.23046875 C-0.36077236 9.70201347 0.90345528 9.46624111 3.375 8.23046875 C3.705 7.57046875 4.035 6.91046875 4.375 6.23046875 C3.385 5.90046875 2.395 5.57046875 1.375 5.23046875 C2.035 4.24046875 2.695 3.25046875 3.375 2.23046875 C0.405 2.23046875 -2.565 2.23046875 -5.625 2.23046875 C-3.625 0.23046875 -3.625 0.23046875 0 0 Z " fill="#456B36" transform="translate(388.625,323.76953125)"/>
<path d="M0 0 C15.18 0 30.36 0 46 0 C46 0.66 46 1.32 46 2 C43.17382044 2.94205985 41.61949582 3.09846177 38.7121582 3.02172852 C37.85149246 3.00163223 36.99082672 2.98153595 36.1040802 2.96083069 C35.17899155 2.93379562 34.25390289 2.90676056 33.30078125 2.87890625 C32.35059616 2.85529526 31.40041107 2.83168427 30.4214325 2.80735779 C27.38496854 2.73075165 24.34876157 2.64671397 21.3125 2.5625 C19.25456989 2.50927627 17.19662722 2.45653589 15.13867188 2.40429688 C10.09228501 2.27514055 5.04611612 2.13931868 0 2 C0 1.34 0 0.68 0 0 Z " fill="#3F5B2E" transform="translate(78,305)"/>
<path d="M0 0 C2.61100366 2.61100366 2.25895487 4.4615632 2.27783203 8.01953125 C2.26864746 8.83808594 2.25946289 9.65664062 2.25 10.5 C2.24468262 11.33917969 2.23936523 12.17835938 2.23388672 13.04296875 C2.14506879 19.06010238 1.76167083 25.01676915 1.125 31 C1.04668945 31.75861328 0.96837891 32.51722656 0.88769531 33.29882812 C0.45964372 36.89052543 0.04064334 38.93903499 -2 42 C-3.125 39.1875 -3.125 39.1875 -4 36 C-3.34 35.01 -2.68 34.02 -2 33 C-2.30840599 30.84725052 -2.30840599 30.84725052 -3 29 C-2.34 29 -1.68 29 -1 29 C-0.67 19.43 -0.34 9.86 0 0 Z " fill="#6E875D" transform="translate(359,117)"/>
<path d="M0 0 C0.33 0 0.66 0 1 0 C0.67 2.64 0.34 5.28 0 8 C-0.61875 8.103125 -1.2375 8.20625 -1.875 8.3125 C-4.36526484 8.87525373 -4.36526484 8.87525373 -6 12 C-6.66 12 -7.32 12 -8 12 C-7.67 12.99 -7.34 13.98 -7 15 C-7 18.10551666 -7.5393715 19.35261084 -9 22 C-10.65 21.67 -12.3 21.34 -14 21 C-12.69616712 17.45207016 -11.13915322 14.48746794 -9 11.375 C-8.484375 10.61960938 -7.96875 9.86421875 -7.4375 9.0859375 C-6.963125 8.39757812 -6.48875 7.70921875 -6 7 C-5.34 6.01 -4.68 5.02 -4 4 C-3.34 4 -2.68 4 -2 4 C-1.34 2.68 -0.68 1.36 0 0 Z " fill="#597646" transform="translate(246,132)"/>
<path d="M0 0 C0 2.31 0 4.62 0 7 C-1.875 8.0625 -1.875 8.0625 -4 9 C-4.66 8.67 -5.32 8.34 -6 8 C-6 8.99 -6 9.98 -6 11 C-7.32 10.67 -8.64 10.34 -10 10 C-10.32152515 6.46322336 -10.4131192 4.6037896 -8.375 1.625 C-5.3962104 -0.4131192 -3.53677664 -0.32152515 0 0 Z " fill="#325E22" transform="translate(149,343)"/>
<path d="M0 0 C0.99 0.33 1.98 0.66 3 1 C3.6875 3.0625 3.6875 3.0625 4 5 C4.99 4.01 5.98 3.02 7 2 C7.33 2.99 7.66 3.98 8 5 C8.66 5 9.32 5 10 5 C10.33 6.32 10.66 7.64 11 9 C10.01 9.495 10.01 9.495 9 10 C8.67 10.66 8.34 11.32 8 12 C3.545 10.02 3.545 10.02 -1 8 C-0.67 7.34 -0.34 6.68 0 6 C-0.66 5.67 -1.32 5.34 -2 5 C-1.34 3.35 -0.68 1.7 0 0 Z " fill="#3D642D" transform="translate(327,311)"/>
<path d="M0 0 C1.07765625 0.03609375 2.1553125 0.0721875 3.265625 0.109375 C4.49539062 0.17898438 4.49539062 0.17898438 5.75 0.25 C6.33984375 2.078125 6.33984375 2.078125 6.75 4.25 C5.3125 7 5.3125 7 3.75 9.25 C3.09 8.92 2.43 8.59 1.75 8.25 C1.125 5.1875 1.125 5.1875 0.75 2.25 C-3.04588866 2.79226981 -4.72211993 4.45127563 -7.25 7.25 C-8.24 6.26 -9.23 5.27 -10.25 4.25 C-7.0246569 0.27312065 -5.05259733 -0.21967814 0 0 Z " fill="#6E8760" transform="translate(234.25,363.75)"/>
<path d="M0 0 C1.65 1.65 3.3 3.3 5 5 C3.125 9.75 3.125 9.75 2 12 C0.35 12 -1.3 12 -3 12 C-3.33 11.34 -3.66 10.68 -4 10 C-3.67 9.34 -3.34 8.68 -3 8 C-3.99 7.67 -4.98 7.34 -6 7 C-4.35 6.67 -2.7 6.34 -1 6 C-1.33 4.68 -1.66 3.36 -2 2 C-1.34 2 -0.68 2 0 2 C0 1.34 0 0.68 0 0 Z " fill="#2B591B" transform="translate(405,367)"/>
<path d="M0 0 C1.875 0.625 1.875 0.625 4 2 C4.66 3.98 5.32 5.96 6 8 C-0.435 8.495 -0.435 8.495 -7 9 C-5.04783565 5.09567131 -3.12613393 2.96160056 0 0 Z " fill="#366125" transform="translate(316,140)"/>
<path d="M0 0 C0.99 0 1.98 0 3 0 C3.226875 1.093125 3.45375 2.18625 3.6875 3.3125 C5.2032785 7.57111578 6.1573604 7.98261421 10 10 C11.3125 12.1875 11.3125 12.1875 12 14 C9 14 9 14 7.24609375 12.609375 C6.64925781 11.99578125 6.05242187 11.3821875 5.4375 10.75 C4.83808594 10.14671875 4.23867188 9.5434375 3.62109375 8.921875 C1.09718421 5.92967381 0 3.94604342 0 0 Z " fill="#577346" transform="translate(367,364)"/>
<path d="M0 0 C0.99 0 1.98 0 3 0 C3 0.99 3 1.98 3 3 C4.32 3.33 5.64 3.66 7 4 C7 4.66 7 5.32 7 6 C7.99 6.33 8.98 6.66 10 7 C11.6875 8.25 11.6875 8.25 13 10 C13.1875 12.6875 13.1875 12.6875 13 15 C12.34 14.67 11.68 14.34 11 14 C11 13.34 11 12.68 11 12 C10.34 12 9.68 12 9 12 C7.2734375 10.3203125 7.2734375 10.3203125 5.375 8.125 C4.74335938 7.40570313 4.11171875 6.68640625 3.4609375 5.9453125 C2 4 2 4 2 2 C1.34 2 0.68 2 0 2 C0 1.34 0 0.68 0 0 Z " fill="#59734A" transform="translate(188,224)"/>
<path d="M0 0 C0.66 0 1.32 0 2 0 C1.37321829 3.66172475 0.35548154 6.8818995 -1.0625 10.3125 C-1.42472656 11.19550781 -1.78695312 12.07851563 -2.16015625 12.98828125 C-2.43730469 13.65214844 -2.71445313 14.31601562 -3 15 C-3.99 15 -4.98 15 -6 15 C-6 12.69 -6 10.38 -6 8 C-4.68 8 -3.36 8 -2 8 C-1.855625 6.865625 -1.71125 5.73125 -1.5625 4.5625 C-1 1 -1 1 0 0 Z " fill="#40622E" transform="translate(172,358)"/>
<path d="M0 0 C0.99 0.66 1.98 1.32 3 2 C3 2.66 3 3.32 3 4 C3.598125 4.20625 4.19625 4.4125 4.8125 4.625 C7.85191923 6.53549209 8.69930839 8.71404225 10 12 C9.67 12.66 9.34 13.32 9 14 C8.67 13.01 8.34 12.02 8 11 C7.34 11 6.68 11 6 11 C4.30859375 9.3203125 4.30859375 9.3203125 2.4375 7.125 C1.50744141 6.04605469 1.50744141 6.04605469 0.55859375 4.9453125 C-1 3 -1 3 -2 1 C-1.34 0.67 -0.68 0.34 0 0 Z " fill="#567349" transform="translate(173,206)"/>
<path d="M0 0 C2.31 0 4.62 0 7 0 C7 3.63 7 7.26 7 11 C5.68 10.34 4.36 9.68 3 9 C3.33 6.36 3.66 3.72 4 1 C2.35 1.33 0.7 1.66 -1 2 C-0.67 1.34 -0.34 0.68 0 0 Z " fill="#3B582C" transform="translate(277,325)"/>
<path d="M0 0 C2.97 0.495 2.97 0.495 6 1 C5.443125 1.20625 4.88625 1.4125 4.3125 1.625 C-0.03037563 4.20725037 -3.04383363 8.37633404 -5 13 C-5.33 10.36 -5.66 7.72 -6 5 C-5.01 5.495 -5.01 5.495 -4 6 C-3.67 4.68 -3.34 3.36 -3 2 C-2.34 2.33 -1.68 2.66 -1 3 C-0.67 2.01 -0.34 1.02 0 0 Z " fill="#68845A" transform="translate(206,334)"/>
<path d="M0 0 C1.16402344 -0.03867187 1.16402344 -0.03867187 2.3515625 -0.078125 C3.01929688 0.03015625 3.68703125 0.1384375 4.375 0.25 C5.035 1.24 5.695 2.23 6.375 3.25 C5.5 5.9375 5.5 5.9375 4.375 8.25 C3.715 7.59 3.055 6.93 2.375 6.25 C2.375 4.93 2.375 3.61 2.375 2.25 C-1.255 2.58 -4.885 2.91 -8.625 3.25 C-8.625 2.59 -8.625 1.93 -8.625 1.25 C-5.70881479 0.42441332 -3.02964506 0.06079555 0 0 Z " fill="#7C8F66" transform="translate(180.625,323.75)"/>
<path d="M0 0 C0.33 0.99 0.66 1.98 1 3 C1.66 3.33 2.32 3.66 3 4 C2.67 4.66 2.34 5.32 2 6 C0.68 5.67 -0.64 5.34 -2 5 C-2 6.98 -2 8.96 -2 11 C-2.66 11 -3.32 11 -4 11 C-4.33 11.99 -4.66 12.98 -5 14 C-5.84566329 11.5976699 -6.12831471 10.37572815 -5.29296875 7.9296875 C-4.92816406 7.25164062 -4.56335938 6.57359375 -4.1875 5.875 C-3.83042969 5.19179688 -3.47335937 4.50859375 -3.10546875 3.8046875 C-2 2 -2 2 0 0 Z " fill="#5F7A50" transform="translate(372,332)"/>
<path d="M0 0 C1.04449911 3.13349732 0.93423645 3.98968256 0 7 C-0.66 7 -1.32 7 -2 7 C-2 12.94 -2 18.88 -2 25 C-1.34 25.33 -0.68 25.66 0 26 C-0.66 26.66 -1.32 27.32 -2 28 C-3.80013962 24.39972077 -3.22753861 20.21443564 -3.25 16.25 C-3.270625 15.35539062 -3.29125 14.46078125 -3.3125 13.5390625 C-3.34378893 8.23558948 -2.90874966 4.62338103 0 0 Z " fill="#667F58" transform="translate(191,337)"/>
<path d="M0 0 C3 3.875 3 3.875 3 5 C-6.57 5 -16.14 5 -26 5 C-26 4.67 -26 4.34 -26 4 C-17.42 3.67 -8.84 3.34 0 3 C0 2.01 0 1.02 0 0 Z " fill="#365B27" transform="translate(122,311)"/>
<path d="M0 0 C1.22589844 0.15275391 1.22589844 0.15275391 2.4765625 0.30859375 C3.41628906 0.43427734 3.41628906 0.43427734 4.375 0.5625 C4.375 0.8925 4.375 1.2225 4.375 1.5625 C1.405 1.5625 -1.565 1.5625 -4.625 1.5625 C-3.635 1.8925 -2.645 2.2225 -1.625 2.5625 C-2.285 4.8725 -2.945 7.1825 -3.625 9.5625 C-5.75008244 6.37487635 -6.1270163 4.29737777 -6.625 0.5625 C-4.10446405 -0.69776798 -2.7707902 -0.35624445 0 0 Z " fill="#5E744E" transform="translate(136.625,324.4375)"/>
<path d="M0 0 C0.66 0 1.32 0 2 0 C2 0.66 2 1.32 2 2 C2.66 2 3.32 2 4 2 C4 2.66 4 3.32 4 4 C4.66 4 5.32 4 6 4 C7.625 6.5 7.625 6.5 9 9 C8.01 9.495 8.01 9.495 7 10 C2.125 6.25 2.125 6.25 1 4 C0.34 4 -0.32 4 -1 4 C-0.67 2.68 -0.34 1.36 0 0 Z " fill="#4A6D3E" transform="translate(193,188)"/>
<path d="M0 0 C0.66 1.32 1.32 2.64 2 4 C1.34 4 0.68 4 0 4 C0.01160156 4.62648437 0.02320313 5.25296875 0.03515625 5.8984375 C0.04417969 6.71570313 0.05320313 7.53296875 0.0625 8.375 C0.07410156 9.18710938 0.08570313 9.99921875 0.09765625 10.8359375 C0 13 0 13 -1 15 C-1.66 15 -2.32 15 -3 15 C-3.55353075 4.44191344 -3.55353075 4.44191344 0 0 Z " fill="#547044" transform="translate(150,166)"/>
<path d="M0 0 C0.94875 0.350625 1.8975 0.70125 2.875 1.0625 C2.545 3.0425 2.215 5.0225 1.875 7.0625 C-0.435 6.0725 -2.745 5.0825 -5.125 4.0625 C-5.125 2.7425 -5.125 1.4225 -5.125 0.0625 C-3.125 -0.9375 -3.125 -0.9375 0 0 Z " fill="#295D1C" transform="translate(204.125,370.9375)"/>
<path d="M0 0 C0.66 0 1.32 0 2 0 C2.66 2.64 3.32 5.28 4 8 C2.68 8.99 1.36 9.98 0 11 C-1.125 9.375 -1.125 9.375 -2 7 C-1.125 3.8125 -1.125 3.8125 0 1 C0 0.67 0 0.34 0 0 Z " fill="#3E6630" transform="translate(233,366)"/>
<path d="M0 0 C2.87243396 5.52391146 5.24065309 10.7733553 6 17 C5.01 16.67 4.02 16.34 3 16 C1.66400819 12.99401842 0.85654947 10.90852004 1.375 7.625 C1.58125 7.08875 1.7875 6.5525 2 6 C0.68 5.67 -0.64 5.34 -2 5 C-1.34 4.67 -0.68 4.34 0 4 C0 2.68 0 1.36 0 0 Z " fill="#677F56" transform="translate(147,335)"/>
<path d="M0 0 C0.33 0.66 0.66 1.32 1 2 C1.66 2.33 2.32 2.66 3 3 C-1.95 5.97 -1.95 5.97 -7 9 C-7.33 8.01 -7.66 7.02 -8 6 C-7.34 6 -6.68 6 -6 6 C-6 4.68 -6 3.36 -6 2 C-4.35 2.33 -2.7 2.66 -1 3 C-0.67 2.01 -0.34 1.02 0 0 Z " fill="#4E7042" transform="translate(256,240)"/>
<path d="M0 0 C1.21236328 0.01353516 1.21236328 0.01353516 2.44921875 0.02734375 C3.37154297 0.04474609 3.37154297 0.04474609 4.3125 0.0625 C1.49673064 3.1883392 -0.48860754 3.62511537 -4.6875 4.0625 C-6.6875 4.0625 -8.6875 4.0625 -10.6875 4.0625 C-7.4284026 0.49301238 -4.73606476 -0.06863862 0 0 Z " fill="#5D754B" transform="translate(161.6875,160.9375)"/>
<path d="M0 0 C0.33 1.32 0.66 2.64 1 4 C1.66 4 2.32 4 3 4 C3 3.34 3 2.68 3 2 C6 0 6 0 8.1875 0.375 C9.0846875 0.684375 9.0846875 0.684375 10 1 C9.67 1.66 9.34 2.32 9 3 C8.01 3 7.02 3 6 3 C5.34 4.32 4.68 5.64 4 7 C2.66666667 7 1.33333333 7 0 7 C0 4.69 0 2.38 0 0 Z " fill="#739062" transform="translate(263,326)"/>
<path d="M0 0 C2.475 0.495 2.475 0.495 5 1 C5.5534764 3.07553648 6 4.84365964 6 7 C6.99 7 7.98 7 9 7 C9 8.32 9 9.64 9 11 C8.34 11 7.68 11 7 11 C5.71993203 9.21601386 4.52339649 7.37146094 3.375 5.5 C2.42753906 3.96859375 2.42753906 3.96859375 1.4609375 2.40625 C0.97882813 1.6121875 0.49671875 0.818125 0 0 Z " fill="#5C784E" transform="translate(216,257)"/>
<path d="M0 0 C1.32 0.33 2.64 0.66 4 1 C4 4.10551666 3.4606285 5.35261084 2 8 C0.35 7.67 -1.3 7.34 -3 7 C-1.125 2.25 -1.125 2.25 0 0 Z " fill="#496C3B" transform="translate(235,146)"/>
<path d="M0 0 C0.66 0 1.32 0 2 0 C3.625 2.5 3.625 2.5 5 5 C4.34 5 3.68 5 3 5 C3 5.99 3 6.98 3 8 C1.68 8.33 0.36 8.66 -1 9 C-2.21393603 5.3581919 -1.5159569 4.38860954 0 1 C0 0.67 0 0.34 0 0 Z " fill="#4E703C" transform="translate(232,330)"/>
<path d="M0 0 C2.475 0.99 2.475 0.99 5 2 C4.2884375 2.6496875 4.2884375 2.6496875 3.5625 3.3125 C1.76313043 5.02309613 1.76313043 5.02309613 1 8 C-0.32 7.67 -1.64 7.34 -3 7 C-2.34 7 -1.68 7 -1 7 C-1 6.34 -1 5.68 -1 5 C-1.99 4.67 -2.98 4.34 -4 4 C-2.68 2.68 -1.36 1.36 0 0 Z " fill="#2E5A1E" transform="translate(221,327)"/>
<path d="M0 0 C2.4377963 -0.05397335 4.87439685 -0.09365616 7.3125 -0.125 C8.00279297 -0.14175781 8.69308594 -0.15851563 9.40429688 -0.17578125 C13.17135396 -0.21217794 14.78431704 -0.14378864 18 2 C13.545 3.485 13.545 3.485 9 5 C8.34 4.34 7.68 3.68 7 3 C7.99 2.67 8.98 2.34 10 2 C6.7 1.67 3.4 1.34 0 1 C0 0.67 0 0.34 0 0 Z " fill="#698859" transform="translate(207,324)"/>
<path d="M0 0 C0 0.66 0 1.32 0 2 C-0.99 2 -1.98 2 -3 2 C-3 1.34 -3 0.68 -3 0 C-3.66 0 -4.32 0 -5 0 C-5.33 1.32 -5.66 2.64 -6 4 C-9.75 5.125 -9.75 5.125 -12 4 C-12 2 -12 2 -10 0 C-6.49555486 -1.3767463 -3.62123372 -0.7407069 0 0 Z " fill="#4F7342" transform="translate(333,368)"/>
<path d="M0 0 C-0.49831724 3.68754757 -1.10067643 5.60490662 -4 8 C-5.4606285 5.35261084 -6 4.10551666 -6 1 C-3.92446352 0.4465236 -2.15634036 0 0 0 Z " fill="#567749" transform="translate(241,365)"/>
<path d="M0 0 C1.32 0.33 2.64 0.66 4 1 C3.67 2.32 3.34 3.64 3 5 C2.34 5 1.68 5 1 5 C0.67 5.99 0.34 6.98 0 8 C-0.66 8 -1.32 8 -2 8 C-2.33 8.66 -2.66 9.32 -3 10 C-2.39009109 6.44219804 -1.4216319 3.3171411 0 0 Z " fill="#537545" transform="translate(163,351)"/>
<path d="M0 0 C5.01113235 1.4317521 6.94469549 3.98445693 10 8 C8.68 8.33 7.36 8.66 6 9 C5.87625 8.071875 5.87625 8.071875 5.75 7.125 C5.20605562 4.82027141 5.20605562 4.82027141 3 3.9375 C2.34 3.628125 1.68 3.31875 1 3 C0.67 2.01 0.34 1.02 0 0 Z " fill="#617951" transform="translate(166,162)"/>
<path d="M0 0 C3.6875 -0.25 3.6875 -0.25 7 0 C6.67 0.99 6.34 1.98 6 3 C6.66 3.33 7.32 3.66 8 4 C4.37 4 0.74 4 -3 4 C-2.01 2.68 -1.02 1.36 0 0 Z " fill="#2A561A" transform="translate(213,378)"/>
<path d="M0 0 C2.97 1.98 2.97 1.98 6 4 C5.01 5.485 5.01 5.485 4 7 C2.35 6.67 0.7 6.34 -1 6 C-1.042721 4.33388095 -1.04063832 2.66617115 -1 1 C-0.67 0.67 -0.34 0.34 0 0 Z " fill="#507240" transform="translate(203,365)"/>
<path d="M0 0 C1.5 1.375 1.5 1.375 3 3 C3 3.66 3 4.32 3 5 C0.69 5.66 -1.62 6.32 -4 7 C-4 5.02 -4 3.04 -4 1 C-2.68 1.33 -1.36 1.66 0 2 C0 1.34 0 0.68 0 0 Z " fill="#2C5A1A" transform="translate(374,336)"/>
<path d="M0 0 C0.99 0 1.98 0 3 0 C3.33 0.99 3.66 1.98 4 3 C6.50447516 4.21869929 6.50447516 4.21869929 9 5 C9 5.99 9 6.98 9 8 C8.34 8.66 7.68 9.32 7 10 C6.67 9.01 6.34 8.02 6 7 C5.34 7 4.68 7 4 7 C0 2.52941176 0 2.52941176 0 0 Z " fill="#5C774E" transform="translate(203,240)"/>
<path d="M0 0 C0.66 0.33 1.32 0.66 2 1 C2.33 1.99 2.66 2.98 3 4 C-0.96 4 -4.92 4 -9 4 C-9 3.34 -9 2.68 -9 2 C-6.94921875 1.77213542 -4.8984375 1.54427083 -2.84765625 1.31640625 C-0.98859771 1.18113386 -0.98859771 1.18113386 0 0 Z " fill="#728D60" transform="translate(396,379)"/>
<path d="M0 0 C0 1.65 0 3.3 0 5 C-3.63 5 -7.26 5 -11 5 C-11 4.67 -11 4.34 -11 4 C-10.195625 3.87625 -9.39125 3.7525 -8.5625 3.625 C-7.716875 3.41875 -6.87125 3.2125 -6 3 C-5.67 2.34 -5.34 1.68 -5 1 C-3.3176559 0.47426747 -1.77322566 0 0 0 Z " fill="#325124" transform="translate(263,376)"/>
<path d="M0 0 C0.33 0.99 0.66 1.98 1 3 C-0.98 4.98 -2.96 6.96 -5 9 C-5.66 8.67 -6.32 8.34 -7 8 C-6.625 5.5625 -6.625 5.5625 -6 3 C-5.34 2.67 -4.68 2.34 -4 2 C-4 2.66 -4 3.32 -4 4 C-3.34 4 -2.68 4 -2 4 C-2 3.34 -2 2.68 -2 2 C-1.34 2 -0.68 2 0 2 C0 1.34 0 0.68 0 0 Z " fill="#57754A" transform="translate(414,370)"/>
<path d="M0 0 C0.99 0.66 1.98 1.32 3 2 C1.25 7.75 1.25 7.75 -1 10 C-1.66 7.69 -2.32 5.38 -3 3 C-2.01 2.01 -1.02 1.02 0 0 Z " fill="#446834" transform="translate(139,339)"/>
<path d="M0 0 C0.66 0 1.32 0 2 0 C2 0.66 2 1.32 2 2 C2.66 2 3.32 2 4 2 C4 2.66 4 3.32 4 4 C4.66 4.33 5.32 4.66 6 5 C5.67 5.66 5.34 6.32 5 7 C3.35 6.67 1.7 6.34 0 6 C-1 3 -1 3 0 0 Z " fill="#466638" transform="translate(181,176)"/>
<path d="M0 0 C0.33 0.66 0.66 1.32 1 2 C0.22265625 3.7265625 0.22265625 3.7265625 -0.9375 5.625 C-1.618125 6.73875 -2.29875 7.8525 -3 9 C-4.42944945 6.64561267 -5.08661261 5.51967567 -4.625 2.75 C-4.41875 2.1725 -4.2125 1.595 -4 1 C-2.68 0.67 -1.36 0.34 0 0 Z " fill="#2B581B" transform="translate(233,338)"/>
<path d="M0 0 C0.33 0.99 0.66 1.98 1 3 C1.66 3.33 2.32 3.66 3 4 C1 7 1 7 0 8 C0 8.99 0 9.98 0 11 C-0.99 11.33 -1.98 11.66 -3 12 C-2.68950274 10.56206608 -2.3765224 9.1246682 -2.0625 7.6875 C-1.88847656 6.88699219 -1.71445313 6.08648437 -1.53515625 5.26171875 C-1 3 -1 3 0 0 Z " fill="#648159" transform="translate(171,327)"/>
<path d="M0 0 C0.99 0 1.98 0 3 0 C1.68775452 3.93673644 0.08089673 6.22719294 -3 9 C-3.66 8.01 -4.32 7.02 -5 6 C-4.34 6 -3.68 6 -3 6 C-2.690625 5.195625 -2.38125 4.39125 -2.0625 3.5625 C-1 1 -1 1 0 0 Z " fill="#597548" transform="translate(343,187)"/>
<path d="M0 0 C1.32 0 2.64 0 4 0 C4.75 1.75 4.75 1.75 5 4 C3.0625 6.25 3.0625 6.25 1 8 C0.21944061 5.65832183 -0.51671752 3.4164124 -1 1 C-0.67 0.67 -0.34 0.34 0 0 Z " fill="#295A1A" transform="translate(233,152)"/>
<path d="M0 0 C3.3 0 6.6 0 10 0 C10 0.33 10 0.66 10 1 C8.35 1.33 6.7 1.66 5 2 C4.67 2.99 4.34 3.98 4 5 C2.68 4.67 1.36 4.34 0 4 C0 2.66666667 0 1.33333333 0 0 Z " fill="#234E14" transform="translate(229,365)"/>
<path d="M0 0 C1.32 0 2.64 0 4 0 C3.52003578 4.99162787 3.11223313 6.85035583 0 11 C0 7.37 0 3.74 0 0 Z " fill="#5E794F" transform="translate(354,352)"/>
<path d="M0 0 C0.33 0 0.66 0 1 0 C1 2.31 1 4.62 1 7 C3.46800047 5.84826645 5.04783565 4.95216435 7 3 C6.6875 4.875 6.6875 4.875 6 7 C3 9 3 9 -1 9 C-1 8.01 -1 7.02 -1 6 C-1.66 5.67 -2.32 5.34 -3 5 C-2.01 5 -1.02 5 0 5 C0 3.35 0 1.7 0 0 Z " fill="#3F6A2B" transform="translate(221,238)"/>
<path d="M0 0 C0.66 0 1.32 0 2 0 C2 0.66 2 1.32 2 2 C2.66 2 3.32 2 4 2 C5.2890625 3.53125 5.2890625 3.53125 6.625 5.5 C7.07101563 6.1496875 7.51703125 6.799375 7.9765625 7.46875 C8.48316406 8.22671875 8.48316406 8.22671875 9 9 C8.01 9 7.02 9 6 9 C6 8.34 6 7.68 6 7 C5.34 7 4.68 7 4 7 C4 6.34 4 5.68 4 5 C2.68 4.67 1.36 4.34 0 4 C0 2.68 0 1.36 0 0 Z " fill="#637D55" transform="translate(202,197)"/>
<path d="M0 0 C1.43088528 2.86177057 0.59991697 4.93375773 0 8 C-1.98 8 -3.96 8 -6 8 C-4.26440562 4.942048 -2.61527381 2.36620011 0 0 Z " fill="#3B6325" transform="translate(277,178)"/>
<path d="M0 0 C0.66 0.33 1.32 0.66 2 1 C1.37240135 3.92879371 0.41377341 6.36095629 -1 9 C-1.66 8.67 -2.32 8.34 -3 8 C-2.67 7.01 -2.34 6.02 -2 5 C-2.66 4.67 -3.32 4.34 -4 4 C-3 2 -3 2 0 0 Z " fill="#486A38" transform="translate(349,176)"/>
<path d="M0 0 C1.65 0 3.3 0 5 0 C5 2.31 5 4.62 5 7 C4.34 7 3.68 7 3 7 C2.67 6.34 2.34 5.68 2 5 C1.01 4.34 0.02 3.68 -1 3 C-0.34 3 0.32 3 1 3 C0.67 2.01 0.34 1.02 0 0 Z " fill="#90B576" transform="translate(268,131)"/>
<path d="M0 0 C0.66 0.33 1.32 0.66 2 1 C1.01 3.31 0.02 5.62 -1 8 C-3.97 7.505 -3.97 7.505 -7 7 C-6.67 6.34 -6.34 5.68 -6 5 C-5.34 5 -4.68 5 -4 5 C-4 4.34 -4 3.68 -4 3 C-2 1.375 -2 1.375 0 0 Z " fill="#5F7B50" transform="translate(254,125)"/>
<path d="M0 0 C0.99 0.33 1.98 0.66 3 1 C-0.96 4.465 -0.96 4.465 -5 8 C-5.99 7.34 -6.98 6.68 -8 6 C-6.7391988 4.96680187 -5.46596742 3.94875621 -4.1875 2.9375 C-3.47980469 2.36902344 -2.77210938 1.80054687 -2.04296875 1.21484375 C-1.36878906 0.81394531 -0.69460938 0.41304688 0 0 Z " fill="#637C51" transform="translate(352,88)"/>
<path d="M0 0 C0 1.65 0 3.3 0 5 C0.66 5.33 1.32 5.66 2 6 C-0.38564077 5.42415568 -2.66682784 4.77772405 -5 4 C-5 3.34 -5 2.68 -5 2 C-5.66 1.67 -6.32 1.34 -7 1 C-4.53721199 -0.231394 -2.7204945 -0.07159196 0 0 Z " fill="#5F7C4F" transform="translate(204,375)"/>
<path d="M0 0 C0 0.99 0 1.98 0 3 C-0.99 3.495 -0.99 3.495 -2 4 C-1.34 2.68 -0.68 1.36 0 0 Z M-4 4 C-3.34 4.33 -2.68 4.66 -2 5 C-4.65654657 8.73884332 -6.58110387 10.64978174 -11 12 C-10.02133662 10.85373678 -9.04205413 9.70800212 -8.0625 8.5625 C-7.51722656 7.92441406 -6.97195313 7.28632812 -6.41015625 6.62890625 C-5.63204305 5.73008851 -4.84063472 4.84063472 -4 4 Z " fill="#3C6626" transform="translate(341,116)"/>
<path d="M0 0 C0.99 0.33 1.98 0.66 3 1 C3 2.32 3 3.64 3 5 C4.4166747 6.7511573 4.4166747 6.7511573 6 8 C5.01 8.33 4.02 8.66 3 9 C0.86928411 6.40608501 -0.53582673 4.36525621 -1 1 C-0.67 0.67 -0.34 0.34 0 0 Z " fill="#4D7042" transform="translate(162,193)"/>
<path d="M0 0 C1.0326802 2.78823655 1.04509293 3.8677274 0.0625 6.75 C-0.288125 7.4925 -0.63875 8.235 -1 9 C-1.66 9 -2.32 9 -3 9 C-3.33 10.32 -3.66 11.64 -4 13 C-4.33 12.34 -4.66 11.68 -5 11 C-4.2578125 8.90625 -4.2578125 8.90625 -3.125 6.5 C-2.75632813 5.7059375 -2.38765625 4.911875 -2.0078125 4.09375 C-1.3486219 2.72426876 -0.67970746 1.35941491 0 0 Z " fill="#738B63" transform="translate(231,153)"/>
<path d="M0 0 C0.99 0 1.98 0 3 0 C5.125 6.75 5.125 6.75 4 9 C0 3.375 0 3.375 0 0 Z " fill="#607C51" transform="translate(367,364)"/>
<path d="M0 0 C0.66 0.33 1.32 0.66 2 1 C1.01 2.98 0.02 4.96 -1 7 C-2.32 6.67 -3.64 6.34 -5 6 C-4.67 4.68 -4.34 3.36 -4 2 C-3.34 2.33 -2.68 2.66 -2 3 C-1.34 2.01 -0.68 1.02 0 0 Z " fill="#2D5E1B" transform="translate(352,332)"/>
<path d="M0 0 C0.33 0.99 0.66 1.98 1 3 C1.99 2.67 2.98 2.34 4 2 C5.10844919 5.32534757 4.84454356 7.62182575 4 11 C1.82145293 7.7321794 0.50239966 4.61941735 -1 1 C-0.67 0.67 -0.34 0.34 0 0 Z " fill="#5D784D" transform="translate(341,326)"/>
<path d="M0 0 C0.33 0.66 0.66 1.32 1 2 C3.01669827 3.13350534 3.01669827 3.13350534 5 4 C4.67 4.99 4.34 5.98 4 7 C2.35 7 0.7 7 -1 7 C-0.67 4.69 -0.34 2.38 0 0 Z " fill="#517343" transform="translate(217,205)"/>
<path d="M0 0 C0.66 0 1.32 0 2 0 C2 0.66 2 1.32 2 2 C2.66 2 3.32 2 4 2 C4 2.66 4 3.32 4 4 C4.66 4 5.32 4 6 4 C5 6 5 6 3 6.6875 C2.34 6.790625 1.68 6.89375 1 7 C0 6 0 6 -0.0625 2.9375 C-0.041875 1.968125 -0.02125 0.99875 0 0 Z " fill="#506D3F" transform="translate(187,182)"/>
<path d="M0 0 C0.66 0.33 1.32 0.66 2 1 C1.67 2.32 1.34 3.64 1 5 C-1.31 5 -3.62 5 -6 5 C-2.25 1.125 -2.25 1.125 0 0 Z " fill="#2B5A19" transform="translate(220,371)"/>
<path d="M0 0 C0.99 1.32 1.98 2.64 3 4 C1.625 6 1.625 6 0 8 C-0.66 8 -1.32 8 -2 8 C-1.125 1.125 -1.125 1.125 0 0 Z " fill="#2C5A20" transform="translate(342,357)"/>
<path d="M0 0 C0.66 0.33 1.32 0.66 2 1 C2.625 4.0625 2.625 4.0625 3 7 C2.01 7.495 2.01 7.495 1 8 C-1 6 -1 6 -1.1875 3.4375 C-1 1 -1 1 0 0 Z " fill="#527244" transform="translate(237,336)"/>
<path d="M0 0 C1.32 0.66 2.64 1.32 4 2 C4 3.32 4 4.64 4 6 C3.34 6 2.68 6 2 6 C1.67 6.66 1.34 7.32 1 8 C0.01 8 -0.98 8 -2 8 C-2 7.34 -2 6.68 -2 6 C-1.34 6 -0.68 6 0 6 C0 4.68 0 3.36 0 2 C0 1.34 0 0.68 0 0 Z " fill="#2B561B" transform="translate(172,328)"/>
<path d="M0 0 C3.29279709 0.31865778 4.86535088 1.54515351 7 4 C6.67 4.66 6.34 5.32 6 6 C5.34 6 4.68 6 4 6 C4 5.34 4 4.68 4 4 C2.02 3.34 0.04 2.68 -2 2 C-1.34 1.34 -0.68 0.68 0 0 Z " fill="#557247" transform="translate(225,326)"/>
<path d="M0 0 C1.65 0.33 3.3 0.66 5 1 C2.06171403 3.50298434 -0.17902761 4.46930939 -4 5 C-4.33 4.01 -4.66 3.02 -5 2 C-3.68 2 -2.36 2 -1 2 C-0.67 1.34 -0.34 0.68 0 0 Z " fill="#547549" transform="translate(297,224)"/>
<path d="M0 0 C2.97 1.98 2.97 1.98 6 4 C5.67 5.32 5.34 6.64 5 8 C4.01 7.34 3.02 6.68 2 6 C2 5.34 2 4.68 2 4 C1.34 4 0.68 4 0 4 C0 2.68 0 1.36 0 0 Z " fill="#526E41" transform="translate(192,368)"/>
<path d="M0 0 C0.66 0.33 1.32 0.66 2 1 C2 1.99 2 2.98 2 4 C-0.70879335 5.35439668 -3.00933268 5.06501451 -6 5 C-4.06745228 2.9754262 -2.36841312 1.57894208 0 0 Z " fill="#627C56" transform="translate(202,326)"/>
<path d="M0 0 C0.99 0.33 1.98 0.66 3 1 C3 1.99 3 2.98 3 4 C1.02 4.66 -0.96 5.32 -3 6 C-1.125 1.125 -1.125 1.125 0 0 Z " fill="#476A36" transform="translate(262,236)"/>
<path d="M0 0 C0.66 0.66 1.32 1.32 2 2 C-1.75 5 -1.75 5 -4 5 C-4 5.66 -4 6.32 -4 7 C-4.66 6.67 -5.32 6.34 -6 6 C-5.25 3.5625 -5.25 3.5625 -4 1 C-2 0.0625 -2 0.0625 0 0 Z " fill="#5D7A4F" transform="translate(323,210)"/>
<path d="M0 0 C0.33 0 0.66 0 1 0 C1 4.62 1 9.24 1 14 C-2.36585366 7.26829268 -2.36585366 7.26829268 -1.0625 2.75 C-0.711875 1.8425 -0.36125 0.935 0 0 Z " fill="#2C521A" transform="translate(357,92)"/>
<path d="M0 0 C0 0.66 0 1.32 0 2 C-2.64738916 3.4606285 -3.89448334 4 -7 4 C-7 3.01 -7 2.02 -7 1 C-4.53721199 -0.231394 -2.7204945 -0.07159196 0 0 Z " fill="#617B51" transform="translate(232,377)"/>
<path d="M0 0 C1.125 3.75 1.125 3.75 0 6 C-0.66 6 -1.32 6 -2 6 C-2.33 6.66 -2.66 7.32 -3 8 C-3 7.34 -3 6.68 -3 6 C-3.66 5.67 -4.32 5.34 -5 5 C-4.01 4.67 -3.02 4.34 -2 4 C-0.79117904 1.99983534 -0.79117904 1.99983534 0 0 Z " fill="#5F7C4D" transform="translate(405,363)"/>
<path d="M0 0 C0.66 0 1.32 0 2 0 C1.39009109 3.55780196 0.4216319 6.6828589 -1 10 C-1.33 10 -1.66 10 -2 10 C-1.85950482 8.52031676 -1.71245174 7.04125484 -1.5625 5.5625 C-1.48128906 4.73878906 -1.40007812 3.91507812 -1.31640625 3.06640625 C-1 1 -1 1 0 0 Z " fill="#5D7850" transform="translate(172,358)"/>
<path d="M0 0 C5.875 4.625 5.875 4.625 7 8 C6.01 8 5.02 8 4 8 C4 7.34 4 6.68 4 6 C3.34 6 2.68 6 2 6 C1.34 4.02 0.68 2.04 0 0 Z " fill="#6D8960" transform="translate(410,329)"/>
<path d="M0 0 C2.31 0 4.62 0 7 0 C6.34 2.64 5.68 5.28 5 8 C3.9375 6.1875 3.9375 6.1875 3 4 C3.33 3.01 3.66 2.02 4 1 C2.35 1.33 0.7 1.66 -1 2 C-0.67 1.34 -0.34 0.68 0 0 Z " fill="#2D511E" transform="translate(277,325)"/>
<path d="M0 0 C0.33 0.66 0.66 1.32 1 2 C0.67 2.66 0.34 3.32 0 4 C-0.66 4 -1.32 4 -2 4 C-2 4.66 -2 5.32 -2 6 C-3.98 6 -5.96 6 -8 6 C-7.360625 5.731875 -6.72125 5.46375 -6.0625 5.1875 C-3.66868314 4.11332248 -3.66868314 4.11332248 -3 1 C-2.01 0.67 -1.02 0.34 0 0 Z " fill="#7A9065" transform="translate(234,265)"/>
<path d="M0 0 C-0.66 1.32 -1.32 2.64 -2 4 C-4.31 3.67 -6.62 3.34 -9 3 C-5.73209435 0.82139623 -3.91954654 0 0 0 Z " fill="#92B878" transform="translate(327,176)"/>
<path d="M0 0 C0.99 0.66 1.98 1.32 3 2 C1.71034824 3.37562854 0.37310707 4.70766393 -1 6 C-1.66 6 -2.32 6 -3 6 C-3 6.66 -3 7.32 -3 8 C-3.66 7.67 -4.32 7.34 -5 7 C-1.125 1.125 -1.125 1.125 0 0 Z " fill="#627B54" transform="translate(241,138)"/>
<path d="M0 0 C0.99 0 1.98 0 3 0 C2.6875 1.9375 2.6875 1.9375 2 4 C1.01 4.33 0.02 4.66 -1 5 C-1.66 5.66 -2.32 6.32 -3 7 C-2.25 2.25 -2.25 2.25 0 0 Z " fill="#8FB577" transform="translate(298,120)"/>
<path d="M0 0 C0.99 0.33 1.98 0.66 3 1 C1.35 2.98 -0.3 4.96 -2 7 C-2.33 5.68 -2.66 4.36 -3 3 C-2.34 3 -1.68 3 -1 3 C-0.67 2.01 -0.34 1.02 0 0 Z " fill="#5E774F" transform="translate(245,248)"/>
<path d="M0 0 C1.65 0 3.3 0 5 0 C5.12375 0.639375 5.2475 1.27875 5.375 1.9375 C5.684375 2.9584375 5.684375 2.9584375 6 4 C6.66 4.33 7.32 4.66 8 5 C6.35 5 4.7 5 3 5 C2.87625 4.360625 2.7525 3.72125 2.625 3.0625 C2.315625 2.0415625 2.315625 2.0415625 2 1 C1.34 0.67 0.68 0.34 0 0 Z " fill="#A1C585" transform="translate(267,189)"/>
<path d="M0 0 C0.66 0.33 1.32 0.66 2 1 C1.67 1.99 1.34 2.98 1 4 C-0.84765625 4.73046875 -0.84765625 4.73046875 -3.0625 5.1875 C-3.79597656 5.34605469 -4.52945312 5.50460938 -5.28515625 5.66796875 C-6.13400391 5.83232422 -6.13400391 5.83232422 -7 6 C-4.74259377 3.66475218 -2.7194239 1.81294927 0 0 Z " fill="#627F53" transform="translate(263,119)"/>
<path d="M0 0 C2.09350689 3.4019487 2.17942163 6.05272412 2 10 C-0.50298434 7.06171403 -1.46930939 4.82097239 -2 1 C-1.34 0.67 -0.68 0.34 0 0 Z " fill="#6F8E60" transform="translate(420,346)"/>
<path d="M0 0 C3.16115776 1.36983503 3.9927092 1.9890638 6 5 C3 5 3 5 0.8125 3 C0.214375 2.34 -0.38375 1.68 -1 1 C-0.67 0.67 -0.34 0.34 0 0 Z " fill="#496A3D" transform="translate(210,206)"/>
<path d="M0 0 C0.33 0 0.66 0 1 0 C1.12375 1.11375 1.2475 2.2275 1.375 3.375 C1.6465813 7.03103677 1.6465813 7.03103677 4 9 C2.02 9.99 2.02 9.99 0 11 C0 7.37 0 3.74 0 0 Z " fill="#487031" transform="translate(268,162)"/>
<path d="M0 0 C1.9375 0.6875 1.9375 0.6875 2.9375 2.6875 C1.2875 3.3475 -0.3625 4.0075 -2.0625 4.6875 C-2.0625 3.6975 -2.0625 2.7075 -2.0625 1.6875 C-2.7225 1.3575 -3.3825 1.0275 -4.0625 0.6875 C-2.0625 -0.3125 -2.0625 -0.3125 0 0 Z " fill="#51713E" transform="translate(278.0625,113.3125)"/>
<path d="M0 0 C2 3 2 3 1.625 5.6875 C1.41875 6.450625 1.2125 7.21375 1 8 C0.34 8 -0.32 8 -1 8 C-1.33 6.02 -1.66 4.04 -2 2 C-1.34 2 -0.68 2 0 2 C0 1.34 0 0.68 0 0 Z " fill="#406530" transform="translate(356,89)"/>
<path d="M0 0 C1.65 0.33 3.3 0.66 5 1 C1.25 4 1.25 4 -1 4 C-1 4.66 -1 5.32 -1 6 C-1.66 5.67 -2.32 5.34 -3 5 C-3 4.34 -3 3.68 -3 3 C-2.01 3 -1.02 3 0 3 C0 2.01 0 1.02 0 0 Z " fill="#7C956F" transform="translate(270,336)"/>
<path d="M0 0 C0.33 0.66 0.66 1.32 1 2 C1.66 2.33 2.32 2.66 3 3 C0.625 4.5625 0.625 4.5625 -2 6 C-2.66 5.67 -3.32 5.34 -4 5 C-4 4.34 -4 3.68 -4 3 C-3.01 3 -2.02 3 -1 3 C-0.67 2.01 -0.34 1.02 0 0 Z " fill="#6B845A" transform="translate(256,240)"/>
<path d="M0 0 C0.99 0 1.98 0 3 0 C2.67 0.99 2.34 1.98 2 3 C1.01 3 0.02 3 -1 3 C-0.67 2.01 -0.34 1.02 0 0 Z M-2 3 C-1.34 3.66 -0.68 4.32 0 5 C-0.66 5 -1.32 5 -2 5 C-2.33 5.66 -2.66 6.32 -3 7 C-3 4 -3 4 -2 3 Z " fill="#93B979" transform="translate(244,199)"/>
<path d="M0 0 C0.99 0 1.98 0 3 0 C3 1.65 3 3.3 3 5 C2.01 5.495 2.01 5.495 1 6 C0.34 5.67 -0.32 5.34 -1 5 C-0.67 3.35 -0.34 1.7 0 0 Z " fill="#95BB7A" transform="translate(332,175)"/>
<path d="M0 0 C1 3 1 3 1 5 C-0.65 5.33 -2.3 5.66 -4 6 C-2.84826645 3.53199953 -1.95216435 1.95216435 0 0 Z " fill="#406829" transform="translate(313,143)"/>
<path d="M0 0 C0.33 0.99 0.66 1.98 1 3 C-2 5 -2 5 -4.6875 4.625 C-5.450625 4.41875 -6.21375 4.2125 -7 4 C-4.68143083 2.45428722 -2.49361571 1.20381448 0 0 Z " fill="#638454" transform="translate(342,95)"/>
</svg>
